<?xml version="1.0" encoding="utf-8" standalone="no"?>
<!DOCTYPE svg PUBLIC "-//W3C//DTD SVG 1.1//EN"
  "http://www.w3.org/Graphics/SVG/1.1/DTD/svg11.dtd">
<svg xmlns:xlink="http://www.w3.org/1999/xlink" width="432pt" height="288pt" viewBox="0 0 432 288" xmlns="http://www.w3.org/2000/svg" version="1.1">
 <metadata>
  <rdf:RDF xmlns:dc="http://purl.org/dc/elements/1.1/" xmlns:cc="http://creativecommons.org/ns#" xmlns:rdf="http://www.w3.org/1999/02/22-rdf-syntax-ns#">
   <cc:Work>
    <dc:type rdf:resource="http://purl.org/dc/dcmitype/StillImage"/>
    <dc:date>2025-04-29T01:15:46.875597</dc:date>
    <dc:format>image/svg+xml</dc:format>
    <dc:creator>
     <cc:Agent>
      <dc:title>Matplotlib v3.10.0, https://matplotlib.org/</dc:title>
     </cc:Agent>
    </dc:creator>
   </cc:Work>
  </rdf:RDF>
 </metadata>
 <defs>
  <style type="text/css">*{stroke-linejoin: round; stroke-linecap: butt}</style>
 </defs>
 <g id="figure_1">
  <g id="patch_1">
   <path d="M 0 288 
L 432 288 
L 432 0 
L 0 0 
z
" style="fill: #ffffff"/>
  </g>
  <g id="axes_1">
   <g id="patch_2">
    <path d="M 107.22 246.66 
L 339.12 246.66 
L 339.12 14.76 
L 107.22 14.76 
z
" style="fill: #eeeeee"/>
   </g>
   <g id="QuadContourSet_1">
    <path d="M 241.477895 222.547888 
L 253.683158 224.350554 
L 265.888421 223.712626 
L 277.655826 222.249474 
L 265.888421 216.664765 
L 253.683158 216.566535 
L 241.477895 221.589256 
L 240.794626 222.249474 
z
M 314.709474 212.257973 
L 322.83636 210.044211 
L 314.709474 206.265167 
L 309.383165 210.044211 
z
M 302.504211 112.563567 
L 314.709474 112.427046 
L 314.720346 112.402105 
L 314.709474 112.394942 
L 302.504211 109.938091 
L 302.124456 112.402105 
z
M 168.246316 101.715938 
L 180.451579 104.080622 
L 185.938779 100.196842 
L 192.656842 94.050291 
L 200.807733 87.991579 
L 204.862105 84.764845 
L 217.067368 82.599105 
L 229.272632 83.29523 
L 241.477895 85.332216 
L 249.900086 87.991579 
L 253.683158 88.907521 
L 265.888421 93.02575 
L 278.093684 100.033226 
L 278.467082 100.196842 
L 290.298947 104.606386 
L 300.266913 100.196842 
L 295.118844 87.991579 
L 290.388913 75.786316 
L 290.298947 75.730979 
L 278.093684 70.573128 
L 265.888421 64.842153 
L 263.681711 63.581053 
L 253.683158 60.030997 
L 241.477895 57.569899 
L 229.272632 58.352277 
L 217.067368 61.170319 
L 207.597417 63.581053 
L 204.862105 65.691749 
L 192.656842 69.132543 
L 180.451579 68.20753 
L 168.246316 64.345661 
L 166.897572 63.581053 
L 156.041053 57.067977 
L 143.835789 53.231635 
L 131.630526 57.102228 
L 123.714909 63.581053 
L 130.356718 75.786316 
L 131.630526 76.660894 
L 143.835789 83.000414 
L 151.140792 87.991579 
L 156.041053 91.953127 
L 166.902675 100.196842 
z
" clip-path="url(#p3fcce1499e)" style="fill: #eef5fc"/>
    <path d="M 156.041053 239.351007 
L 166.446898 246.66 
L 168.246316 246.66 
L 180.451579 246.66 
L 192.656842 246.66 
L 195.20618 246.66 
L 204.862105 235.770086 
L 217.067368 234.654886 
L 229.272632 234.565072 
L 233.613357 234.454737 
L 241.477895 233.959945 
L 253.683158 232.395279 
L 265.888421 230.337848 
L 278.093684 228.140241 
L 290.298947 226.377911 
L 302.504211 225.603854 
L 314.709474 225.918464 
L 326.914737 226.483203 
L 339.12 225.001844 
L 339.12 222.249474 
L 339.12 210.044211 
L 339.12 207.792997 
L 331.459569 197.838947 
L 326.986051 185.633684 
L 326.914737 185.397414 
L 314.90719 173.428421 
L 314.709474 173.246901 
L 314.436699 173.428421 
L 302.504211 180.267013 
L 297.195183 185.633684 
L 290.298947 192.895298 
L 282.039178 197.838947 
L 278.093684 199.469932 
L 265.888421 201.269767 
L 253.683158 201.19932 
L 241.477895 200.120142 
L 229.272632 198.748676 
L 223.73931 210.044211 
L 217.067368 222.05649 
L 216.957541 222.249474 
L 204.862105 232.661494 
L 192.656842 230.925705 
L 180.451579 227.784604 
L 168.271612 222.249474 
L 168.246316 222.235321 
L 156.041053 214.589504 
L 143.835789 210.313306 
L 139.097686 222.249474 
L 143.835789 229.495623 
L 147.819781 234.454737 
z
M 240.794626 222.249474 
L 241.477895 221.589256 
L 253.683158 216.566535 
L 265.888421 216.664765 
L 277.655826 222.249474 
L 265.888421 223.712626 
L 253.683158 224.350554 
L 241.477895 222.547888 
z
M 309.383165 210.044211 
L 314.709474 206.265167 
L 322.83636 210.044211 
L 314.709474 212.257973 
z
M 204.862105 190.331991 
L 217.067368 194.415499 
L 225.11438 185.633684 
L 220.90012 173.428421 
L 217.067368 168.44039 
L 209.868868 161.223158 
L 204.862105 156.208498 
L 193.834365 149.017895 
L 192.656842 146.182575 
L 186.507138 136.812632 
L 192.656842 129.308662 
L 194.340087 124.607368 
L 203.538885 112.402105 
L 204.862105 111.026197 
L 217.067368 101.623414 
L 222.303946 100.196842 
L 229.272632 98.792533 
L 241.477895 99.814068 
L 242.679433 100.196842 
L 253.683158 103.63467 
L 265.888421 109.586017 
L 270.431009 112.402105 
L 278.093684 116.360622 
L 290.298947 123.18905 
L 292.572714 124.607368 
L 302.504211 130.466239 
L 312.858716 136.812632 
L 314.709474 138.473299 
L 326.914737 141.765972 
L 336.303833 136.812632 
L 339.12 134.899078 
L 339.12 124.607368 
L 339.12 115.393074 
L 336.590409 112.402105 
L 326.914737 104.022746 
L 322.269781 100.196842 
L 315.913735 87.991579 
L 318.806137 75.786316 
L 326.914737 69.753622 
L 335.087925 63.581053 
L 339.12 59.537613 
L 339.12 51.375789 
L 339.12 48.736054 
L 326.914737 48.219702 
L 314.709474 50.763658 
L 311.932356 51.375789 
L 302.504211 56.313153 
L 290.298947 57.212771 
L 278.093684 54.775033 
L 269.607523 51.375789 
L 265.888421 48.661623 
L 254.608601 39.170526 
L 260.757059 26.965263 
L 260.307735 14.76 
L 253.683158 14.76 
L 241.477895 14.76 
L 241.305988 14.76 
L 237.536244 26.965263 
L 236.031849 39.170526 
L 229.272632 41.375054 
L 217.067368 45.604499 
L 204.862105 48.107826 
L 192.656842 48.080234 
L 180.451579 41.181317 
L 179.062964 39.170526 
L 171.49236 26.965263 
L 168.246316 25.778041 
L 156.041053 24.268426 
L 147.660581 26.965263 
L 143.835789 30.649996 
L 137.666876 39.170526 
L 131.630526 44.641362 
L 123.794221 51.375789 
L 119.425263 55.168309 
L 113.644414 63.581053 
L 119.106617 75.786316 
L 119.425263 76.069225 
L 131.630526 84.559967 
L 136.52112 87.991579 
L 143.835789 94.517711 
L 150.246414 100.196842 
L 156.041053 109.973284 
L 158.250189 112.402105 
L 163.588485 124.607368 
L 163.287502 136.812632 
L 156.041053 141.631782 
L 143.835789 146.111946 
L 138.618458 149.017895 
L 131.630526 153.556687 
L 127.096907 161.223158 
L 131.024834 173.428421 
L 131.630526 174.402752 
L 143.835789 176.194958 
L 149.993292 173.428421 
L 156.041053 169.360194 
L 168.246316 166.105464 
L 178.074977 173.428421 
L 180.451579 174.474179 
L 192.656842 183.426213 
L 195.928962 185.633684 
z
M 302.124456 112.402105 
L 302.504211 109.938091 
L 314.709474 112.394942 
L 314.720346 112.402105 
L 314.709474 112.427046 
L 302.504211 112.563567 
z
M 166.902675 100.196842 
L 156.041053 91.953127 
L 151.140792 87.991579 
L 143.835789 83.000414 
L 131.630526 76.660894 
L 130.356718 75.786316 
L 123.714909 63.581053 
L 131.630526 57.102228 
L 143.835789 53.231635 
L 156.041053 57.067977 
L 166.897572 63.581053 
L 168.246316 64.345661 
L 180.451579 68.20753 
L 192.656842 69.132543 
L 204.862105 65.691749 
L 207.597417 63.581053 
L 217.067368 61.170319 
L 229.272632 58.352277 
L 241.477895 57.569899 
L 253.683158 60.030997 
L 263.681711 63.581053 
L 265.888421 64.842153 
L 278.093684 70.573128 
L 290.298947 75.730979 
L 290.388913 75.786316 
L 295.118844 87.991579 
L 300.266913 100.196842 
L 290.298947 104.606386 
L 278.467082 100.196842 
L 278.093684 100.033226 
L 265.888421 93.02575 
L 253.683158 88.907521 
L 249.900086 87.991579 
L 241.477895 85.332216 
L 229.272632 83.29523 
L 217.067368 82.599105 
L 204.862105 84.764845 
L 200.807733 87.991579 
L 192.656842 94.050291 
L 185.938779 100.196842 
L 180.451579 104.080622 
L 168.246316 101.715938 
z
" clip-path="url(#p3fcce1499e)" style="fill: #d9e8f5"/>
    <path d="M 143.835789 236.917794 
L 156.041053 245.631799 
L 157.504907 246.66 
L 166.446898 246.66 
L 156.041053 239.351007 
L 147.819781 234.454737 
L 143.835789 229.495623 
L 139.097686 222.249474 
L 143.835789 210.313306 
L 156.041053 214.589504 
L 168.246316 222.235321 
L 168.271612 222.249474 
L 180.451579 227.784604 
L 192.656842 230.925705 
L 204.862105 232.661494 
L 216.957541 222.249474 
L 217.067368 222.05649 
L 223.73931 210.044211 
L 229.272632 198.748676 
L 241.477895 200.120142 
L 253.683158 201.19932 
L 265.888421 201.269767 
L 278.093684 199.469932 
L 282.039178 197.838947 
L 290.298947 192.895298 
L 297.195183 185.633684 
L 302.504211 180.267013 
L 314.436699 173.428421 
L 314.709474 173.246901 
L 314.90719 173.428421 
L 326.914737 185.397414 
L 326.986051 185.633684 
L 331.459569 197.838947 
L 339.12 207.792997 
L 339.12 197.838947 
L 339.12 195.004383 
L 334.530684 185.633684 
L 330.947305 173.428421 
L 329.22644 161.223158 
L 334.981322 149.017895 
L 339.12 146.263113 
L 339.12 136.812632 
L 339.12 134.899078 
L 336.303833 136.812632 
L 326.914737 141.765972 
L 314.709474 138.473299 
L 312.858716 136.812632 
L 302.504211 130.466239 
L 292.572714 124.607368 
L 290.298947 123.18905 
L 278.093684 116.360622 
L 270.431009 112.402105 
L 265.888421 109.586017 
L 253.683158 103.63467 
L 242.679433 100.196842 
L 241.477895 99.814068 
L 229.272632 98.792533 
L 222.303946 100.196842 
L 217.067368 101.623414 
L 204.862105 111.026197 
L 203.538885 112.402105 
L 194.340087 124.607368 
L 192.656842 129.308662 
L 186.507138 136.812632 
L 192.656842 146.182575 
L 193.834365 149.017895 
L 204.862105 156.208498 
L 209.868868 161.223158 
L 217.067368 168.44039 
L 220.90012 173.428421 
L 225.11438 185.633684 
L 217.067368 194.415499 
L 204.862105 190.331991 
L 195.928962 185.633684 
L 192.656842 183.426213 
L 180.451579 174.474179 
L 178.074977 173.428421 
L 168.246316 166.105464 
L 156.041053 169.360194 
L 149.993292 173.428421 
L 143.835789 176.194958 
L 131.630526 174.402752 
L 131.024834 173.428421 
L 127.096907 161.223158 
L 131.630526 153.556687 
L 138.618458 149.017895 
L 143.835789 146.111946 
L 156.041053 141.631782 
L 163.287502 136.812632 
L 163.588485 124.607368 
L 158.250189 112.402105 
L 156.041053 109.973284 
L 150.246414 100.196842 
L 143.835789 94.517711 
L 136.52112 87.991579 
L 131.630526 84.559967 
L 119.425263 76.069225 
L 119.106617 75.786316 
L 113.644414 63.581053 
L 119.425263 55.168309 
L 123.794221 51.375789 
L 131.630526 44.641362 
L 137.666876 39.170526 
L 143.835789 30.649996 
L 147.660581 26.965263 
L 156.041053 24.268426 
L 168.246316 25.778041 
L 171.49236 26.965263 
L 179.062964 39.170526 
L 180.451579 41.181317 
L 192.656842 48.080234 
L 204.862105 48.107826 
L 217.067368 45.604499 
L 229.272632 41.375054 
L 236.031849 39.170526 
L 237.536244 26.965263 
L 241.305988 14.76 
L 230.594027 14.76 
L 229.272632 16.897249 
L 217.926622 26.965263 
L 217.067368 27.841502 
L 204.862105 32.362416 
L 192.656842 29.448731 
L 189.847844 26.965263 
L 180.451579 23.870814 
L 168.246316 19.62523 
L 156.041053 18.742455 
L 143.835789 23.202092 
L 138.636911 26.965263 
L 131.630526 35.248279 
L 128.228363 39.170526 
L 119.425263 47.255329 
L 114.965076 51.375789 
L 107.22 62.179648 
L 107.22 63.581053 
L 107.22 65.367549 
L 112.713449 75.786316 
L 119.425263 81.745376 
L 127.48712 87.991579 
L 131.630526 92.003314 
L 140.49926 100.196842 
L 143.835789 106.779876 
L 147.476686 112.402105 
L 148.393602 124.607368 
L 143.835789 131.386784 
L 140.397691 136.812632 
L 131.630526 143.241277 
L 126.079244 149.017895 
L 119.425263 159.14361 
L 118.668303 161.223158 
L 119.425263 166.563879 
L 121.556506 173.428421 
L 129.451685 185.633684 
L 131.630526 196.966841 
L 132.205569 197.838947 
L 131.630526 198.708749 
L 130.226589 210.044211 
L 131.086349 222.249474 
L 131.630526 223.09105 
L 140.642888 234.454737 
z
M 172.223634 210.044211 
L 168.246316 205.079181 
L 162.008752 197.838947 
L 168.246316 192.983438 
L 180.451579 195.132254 
L 185.743217 197.838947 
L 192.656842 204.688625 
L 197.105915 210.044211 
L 192.656842 213.529289 
L 180.451579 213.615077 
z
M 251.198607 185.633684 
L 241.477895 179.004711 
L 237.156627 173.428421 
L 229.272632 163.885391 
L 227.154458 161.223158 
L 217.793602 149.017895 
L 217.067368 146.980806 
L 212.78958 136.812632 
L 216.343096 124.607368 
L 217.067368 123.721126 
L 229.272632 114.900413 
L 241.477895 113.840157 
L 253.683158 116.912466 
L 265.888421 121.975546 
L 270.935728 124.607368 
L 278.093684 128.293584 
L 290.298947 135.321979 
L 292.653805 136.812632 
L 302.504211 147.698296 
L 303.986259 149.017895 
L 302.504211 156.21766 
L 301.7248 161.223158 
L 291.098648 173.428421 
L 290.298947 174.235819 
L 278.093684 184.240744 
L 274.190205 185.633684 
L 265.888421 188.14637 
L 253.683158 186.892591 
z
M 204.862105 246.66 
L 209.177232 246.66 
L 217.067368 242.001626 
L 229.272632 239.175758 
L 241.477895 237.781596 
L 253.683158 236.649186 
L 265.888421 235.48014 
L 276.349564 234.454737 
L 278.093684 234.079818 
L 290.298947 231.940137 
L 302.504211 230.917189 
L 314.709474 231.054851 
L 326.914737 231.573061 
L 339.12 230.404815 
L 339.12 225.001844 
L 326.914737 226.483203 
L 314.709474 225.918464 
L 302.504211 225.603854 
L 290.298947 226.377911 
L 278.093684 228.140241 
L 265.888421 230.337848 
L 253.683158 232.395279 
L 241.477895 233.959945 
L 233.613357 234.454737 
L 229.272632 234.565072 
L 217.067368 234.654886 
L 204.862105 235.770086 
L 195.20618 246.66 
z
M 339.12 115.393074 
L 339.12 112.402105 
L 339.12 104.995773 
L 333.811736 100.196842 
L 327.996015 87.991579 
L 331.894917 75.786316 
L 339.12 69.729185 
L 339.12 63.581053 
L 339.12 59.537613 
L 335.087925 63.581053 
L 326.914737 69.753622 
L 318.806137 75.786316 
L 315.913735 87.991579 
L 322.269781 100.196842 
L 326.914737 104.022746 
L 336.590409 112.402105 
z
M 278.093684 54.775033 
L 290.298947 57.212771 
L 302.504211 56.313153 
L 311.932356 51.375789 
L 314.709474 50.763658 
L 326.914737 48.219702 
L 339.12 48.736054 
L 339.12 43.430197 
L 326.914737 42.828646 
L 314.709474 44.535986 
L 302.504211 46.146044 
L 290.298947 45.501008 
L 278.093684 39.523586 
L 277.66322 39.170526 
L 273.582953 26.965263 
L 269.809756 14.76 
L 265.888421 14.76 
L 260.307735 14.76 
L 260.757059 26.965263 
L 254.608601 39.170526 
L 265.888421 48.661623 
L 269.607523 51.375789 
z
" clip-path="url(#p3fcce1499e)" style="fill: #c6dbef"/>
    <path d="M 143.835789 240.876246 
L 151.598138 246.66 
L 156.041053 246.66 
L 157.504907 246.66 
L 156.041053 245.631799 
L 143.835789 236.917794 
L 140.642888 234.454737 
L 131.630526 223.09105 
L 131.086349 222.249474 
L 130.226589 210.044211 
L 131.630526 198.708749 
L 132.205569 197.838947 
L 131.630526 196.966841 
L 129.451685 185.633684 
L 121.556506 173.428421 
L 119.425263 166.563879 
L 118.668303 161.223158 
L 119.425263 159.14361 
L 126.079244 149.017895 
L 131.630526 143.241277 
L 140.397691 136.812632 
L 143.835789 131.386784 
L 148.393602 124.607368 
L 147.476686 112.402105 
L 143.835789 106.779876 
L 140.49926 100.196842 
L 131.630526 92.003314 
L 127.48712 87.991579 
L 119.425263 81.745376 
L 112.713449 75.786316 
L 107.22 65.367549 
L 107.22 75.786316 
L 107.22 76.466162 
L 119.425263 87.421527 
L 120.161019 87.991579 
L 131.630526 99.096601 
L 132.821435 100.196842 
L 139.466115 112.402105 
L 139.089216 124.607368 
L 131.630526 134.639903 
L 130.296379 136.812632 
L 119.425263 148.043338 
L 118.781973 149.017895 
L 114.345901 161.223158 
L 116.07069 173.428421 
L 119.425263 183.045672 
L 121.155297 185.633684 
L 124.96303 197.838947 
L 124.896026 210.044211 
L 126.902617 222.249474 
L 131.630526 229.561238 
L 135.511484 234.454737 
z
M 217.067368 246.66 
L 221.58252 246.66 
L 229.272632 243.786445 
L 241.477895 241.259234 
L 253.683158 239.59872 
L 265.888421 238.18852 
L 278.093684 236.905052 
L 290.298947 235.873218 
L 302.504211 235.313716 
L 314.709474 235.307707 
L 326.914737 235.517999 
L 339.12 235.058325 
L 339.12 234.454737 
L 339.12 230.404815 
L 326.914737 231.573061 
L 314.709474 231.054851 
L 302.504211 230.917189 
L 290.298947 231.940137 
L 278.093684 234.079818 
L 276.349564 234.454737 
L 265.888421 235.48014 
L 253.683158 236.649186 
L 241.477895 237.781596 
L 229.272632 239.175758 
L 217.067368 242.001626 
L 209.177232 246.66 
z
M 180.451579 213.615077 
L 192.656842 213.529289 
L 197.105915 210.044211 
L 192.656842 204.688625 
L 185.743217 197.838947 
L 180.451579 195.132254 
L 168.246316 192.983438 
L 162.008752 197.838947 
L 168.246316 205.079181 
L 172.223634 210.044211 
z
M 253.683158 186.892591 
L 265.888421 188.14637 
L 274.190205 185.633684 
L 278.093684 184.240744 
L 290.298947 174.235819 
L 291.098648 173.428421 
L 301.7248 161.223158 
L 302.504211 156.21766 
L 303.986259 149.017895 
L 302.504211 147.698296 
L 292.653805 136.812632 
L 290.298947 135.321979 
L 278.093684 128.293584 
L 270.935728 124.607368 
L 265.888421 121.975546 
L 253.683158 116.912466 
L 241.477895 113.840157 
L 229.272632 114.900413 
L 217.067368 123.721126 
L 216.343096 124.607368 
L 212.78958 136.812632 
L 217.067368 146.980806 
L 217.793602 149.017895 
L 227.154458 161.223158 
L 229.272632 163.885391 
L 237.156627 173.428421 
L 241.477895 179.004711 
L 251.198607 185.633684 
z
M 243.14807 161.223158 
L 241.477895 159.055934 
L 235.158549 149.017895 
L 234.536585 136.812632 
L 241.477895 131.541249 
L 253.683158 131.161099 
L 265.888421 134.663133 
L 270.491364 136.812632 
L 278.093684 142.437483 
L 284.772452 149.017895 
L 283.182567 161.223158 
L 278.093684 166.544754 
L 265.888421 172.79586 
L 253.683158 170.019001 
z
M 339.12 195.004383 
L 339.12 185.633684 
L 339.12 174.960682 
L 338.684872 173.428421 
L 339.12 161.770807 
L 339.12 161.223158 
L 339.12 149.017895 
L 339.12 146.263113 
L 334.981322 149.017895 
L 329.22644 161.223158 
L 330.947305 173.428421 
L 334.530684 185.633684 
z
M 339.12 104.995773 
L 339.12 100.196842 
L 339.12 92.479298 
L 336.751068 87.991579 
L 339.12 81.739294 
L 339.12 75.786316 
L 339.12 69.729185 
L 331.894917 75.786316 
L 327.996015 87.991579 
L 333.811736 100.196842 
z
M 114.965076 51.375789 
L 119.425263 47.255329 
L 128.228363 39.170526 
L 131.630526 35.248279 
L 138.636911 26.965263 
L 143.835789 23.202092 
L 156.041053 18.742455 
L 168.246316 19.62523 
L 180.451579 23.870814 
L 189.847844 26.965263 
L 192.656842 29.448731 
L 204.862105 32.362416 
L 217.067368 27.841502 
L 217.926622 26.965263 
L 229.272632 16.897249 
L 230.594027 14.76 
L 229.272632 14.76 
L 219.495424 14.76 
L 217.067368 17.023904 
L 204.862105 21.551679 
L 192.656842 20.834146 
L 180.451579 17.250721 
L 172.608644 14.76 
L 168.246316 14.76 
L 156.041053 14.76 
L 152.708513 14.76 
L 143.835789 18.360546 
L 131.948242 26.965263 
L 131.630526 27.34087 
L 121.369464 39.170526 
L 119.425263 40.956088 
L 108.146472 51.375789 
L 107.22 52.668155 
L 107.22 62.179648 
z
M 278.093684 39.523586 
L 290.298947 45.501008 
L 302.504211 46.146044 
L 314.709474 44.535986 
L 326.914737 42.828646 
L 339.12 43.430197 
L 339.12 39.170526 
L 339.12 38.659179 
L 326.914737 38.200937 
L 314.709474 38.629997 
L 302.504211 38.538529 
L 290.298947 35.057642 
L 283.099512 26.965263 
L 278.093684 18.954908 
L 276.210292 14.76 
L 269.809756 14.76 
L 273.582953 26.965263 
L 277.66322 39.170526 
z
" clip-path="url(#p3fcce1499e)" style="fill: #a6cee4"/>
    <path d="M 131.630526 235.251507 
L 143.835789 244.834698 
L 146.285519 246.66 
L 151.598138 246.66 
L 143.835789 240.876246 
L 135.511484 234.454737 
L 131.630526 229.561238 
L 126.902617 222.249474 
L 124.896026 210.044211 
L 124.96303 197.838947 
L 121.155297 185.633684 
L 119.425263 183.045672 
L 116.07069 173.428421 
L 114.345901 161.223158 
L 118.781973 149.017895 
L 119.425263 148.043338 
L 130.296379 136.812632 
L 131.630526 134.639903 
L 139.089216 124.607368 
L 139.466115 112.402105 
L 132.821435 100.196842 
L 131.630526 99.096601 
L 120.161019 87.991579 
L 119.425263 87.421527 
L 107.22 76.466162 
L 107.22 81.296975 
L 114.621039 87.991579 
L 119.425263 93.117205 
L 126.690356 100.196842 
L 131.630526 110.800075 
L 132.517536 112.402105 
L 131.630526 121.796611 
L 131.416049 124.607368 
L 123.891348 136.812632 
L 119.425263 141.426444 
L 114.414259 149.017895 
L 110.023499 161.223158 
L 111.741696 173.428421 
L 116.105282 185.633684 
L 118.710378 197.838947 
L 119.425263 208.533737 
L 119.565463 210.044211 
L 122.718886 222.249474 
L 130.748595 234.454737 
z
M 229.272632 246.66 
L 234.218509 246.66 
L 241.477895 244.736873 
L 253.683158 242.548253 
L 265.888421 240.896901 
L 278.093684 239.520457 
L 290.298947 238.46209 
L 302.504211 237.883867 
L 314.709474 237.830702 
L 326.914737 237.968817 
L 339.12 237.468564 
L 339.12 235.058325 
L 326.914737 235.517999 
L 314.709474 235.307707 
L 302.504211 235.313716 
L 290.298947 235.873218 
L 278.093684 236.905052 
L 265.888421 238.18852 
L 253.683158 239.59872 
L 241.477895 241.259234 
L 229.272632 243.786445 
L 221.58252 246.66 
z
M 339.12 174.960682 
L 339.12 173.428421 
L 339.12 161.770807 
L 338.684872 173.428421 
z
M 253.683158 170.019001 
L 265.888421 172.79586 
L 278.093684 166.544754 
L 283.182567 161.223158 
L 284.772452 149.017895 
L 278.093684 142.437483 
L 270.491364 136.812632 
L 265.888421 134.663133 
L 253.683158 131.161099 
L 241.477895 131.541249 
L 234.536585 136.812632 
L 235.158549 149.017895 
L 241.477895 159.055934 
L 243.14807 161.223158 
z
M 339.12 92.479298 
L 339.12 87.991579 
L 339.12 81.739294 
L 336.751068 87.991579 
z
M 108.146472 51.375789 
L 119.425263 40.956088 
L 121.369464 39.170526 
L 131.630526 27.34087 
L 131.948242 26.965263 
L 143.835789 18.360546 
L 152.708513 14.76 
L 143.835789 14.76 
L 142.405033 14.76 
L 131.630526 22.932517 
L 127.190056 26.965263 
L 119.425263 35.49918 
L 115.795558 39.170526 
L 107.22 47.251134 
L 107.22 51.375789 
L 107.22 52.668155 
z
M 290.298947 35.057642 
L 302.504211 38.538529 
L 314.709474 38.629997 
L 326.914737 38.200937 
L 339.12 38.659179 
L 339.12 36.065823 
L 326.914737 35.184607 
L 314.709474 34.725812 
L 302.504211 32.858842 
L 292.203676 26.965263 
L 290.298947 25.670047 
L 281.803317 14.76 
L 278.093684 14.76 
L 276.210292 14.76 
L 278.093684 18.954908 
L 283.099512 26.965263 
z
M 180.451579 17.250721 
L 192.656842 20.834146 
L 204.862105 21.551679 
L 217.067368 17.023904 
L 219.495424 14.76 
L 217.067368 14.76 
L 204.862105 14.76 
L 192.656842 14.76 
L 180.451579 14.76 
L 172.608644 14.76 
z
" clip-path="url(#p3fcce1499e)" style="fill: #7fb9da"/>
    <path d="M 131.630526 238.521177 
L 141.663704 246.66 
L 143.835789 246.66 
L 146.285519 246.66 
L 143.835789 244.834698 
L 131.630526 235.251507 
L 130.748595 234.454737 
L 122.718886 222.249474 
L 119.565463 210.044211 
L 119.425263 208.533737 
L 118.710378 197.838947 
L 116.105282 185.633684 
L 111.741696 173.428421 
L 110.023499 161.223158 
L 114.414259 149.017895 
L 119.425263 141.426444 
L 123.891348 136.812632 
L 131.416049 124.607368 
L 131.630526 121.796611 
L 132.517536 112.402105 
L 131.630526 110.800075 
L 126.690356 100.196842 
L 119.425263 93.117205 
L 114.621039 87.991579 
L 107.22 81.296975 
L 107.22 86.127788 
L 109.280464 87.991579 
L 119.425263 98.815064 
L 120.843238 100.196842 
L 126.905707 112.402105 
L 125.800398 124.607368 
L 119.425263 134.243167 
L 118.094373 136.812632 
L 110.046546 149.017895 
L 107.22 156.92796 
L 107.22 161.223158 
L 107.22 172.056147 
L 107.412701 173.428421 
L 111.910586 185.633684 
L 114.87152 197.838947 
L 116.112806 210.044211 
L 118.766599 222.249474 
L 119.425263 223.358482 
L 127.12945 234.454737 
z
M 241.477895 246.66 
L 247.964873 246.66 
L 253.683158 245.497786 
L 265.888421 243.605281 
L 278.093684 242.135862 
L 290.298947 241.050963 
L 302.504211 240.454018 
L 314.709474 240.353697 
L 326.914737 240.419635 
L 339.12 239.878802 
L 339.12 237.468564 
L 326.914737 237.968817 
L 314.709474 237.830702 
L 302.504211 237.883867 
L 290.298947 238.46209 
L 278.093684 239.520457 
L 265.888421 240.896901 
L 253.683158 242.548253 
L 241.477895 244.736873 
L 234.218509 246.66 
z
M 115.795558 39.170526 
L 119.425263 35.49918 
L 127.190056 26.965263 
L 131.630526 22.932517 
L 142.405033 14.76 
L 136.823189 14.76 
L 131.630526 18.69866 
L 122.528142 26.965263 
L 119.425263 30.37549 
L 110.729981 39.170526 
L 107.22 42.477924 
L 107.22 47.251134 
z
M 302.504211 32.858842 
L 314.709474 34.725812 
L 326.914737 35.184607 
L 339.12 36.065823 
L 339.12 33.472467 
L 326.914737 32.168277 
L 314.709474 30.821627 
L 302.504211 27.179155 
L 302.13038 26.965263 
L 290.298947 18.919882 
L 287.059656 14.76 
L 281.803317 14.76 
L 290.298947 25.670047 
L 292.203676 26.965263 
z
" clip-path="url(#p3fcce1499e)" style="fill: #5ba3d0"/>
    <path d="M 131.630526 241.790847 
L 137.633 246.66 
L 141.663704 246.66 
L 131.630526 238.521177 
L 127.12945 234.454737 
L 119.425263 223.358482 
L 118.766599 222.249474 
L 116.112806 210.044211 
L 114.87152 197.838947 
L 111.910586 185.633684 
L 107.412701 173.428421 
L 107.22 172.056147 
L 107.22 173.428421 
L 107.22 184.289845 
L 107.71589 185.633684 
L 111.032663 197.838947 
L 112.710873 210.044211 
L 115.670717 222.249474 
L 119.425263 228.571095 
L 123.510306 234.454737 
z
M 253.683158 246.66 
L 263.761583 246.66 
L 265.888421 246.313662 
L 278.093684 244.751268 
L 290.298947 243.639835 
L 302.504211 243.02417 
L 314.709474 242.876692 
L 326.914737 242.870453 
L 339.12 242.28904 
L 339.12 239.878802 
L 326.914737 240.419635 
L 314.709474 240.353697 
L 302.504211 240.454018 
L 290.298947 241.050963 
L 278.093684 242.135862 
L 265.888421 243.605281 
L 253.683158 245.497786 
L 247.964873 246.66 
z
M 110.046546 149.017895 
L 118.094373 136.812632 
L 119.425263 134.243167 
L 125.800398 124.607368 
L 126.905707 112.402105 
L 120.843238 100.196842 
L 119.425263 98.815064 
L 109.280464 87.991579 
L 107.22 86.127788 
L 107.22 87.991579 
L 107.22 91.077043 
L 115.831839 100.196842 
L 119.425263 108.316724 
L 121.489488 112.402105 
L 120.184748 124.607368 
L 119.425263 125.755304 
L 113.697966 136.812632 
L 107.22 146.659777 
L 107.22 149.017895 
L 107.22 156.92796 
z
M 110.729981 39.170526 
L 119.425263 30.37549 
L 122.528142 26.965263 
L 131.630526 18.69866 
L 136.823189 14.76 
L 131.630526 14.76 
L 131.346273 14.76 
L 119.425263 25.712618 
L 118.100968 26.965263 
L 107.22 37.943571 
L 107.22 39.170526 
L 107.22 42.477924 
z
M 302.504211 27.179155 
L 314.709474 30.821627 
L 326.914737 32.168277 
L 339.12 33.472467 
L 339.12 30.879111 
L 326.914737 29.151947 
L 314.912269 26.965263 
L 314.709474 26.926773 
L 302.504211 22.837205 
L 292.365203 14.76 
L 290.298947 14.76 
L 287.059656 14.76 
L 290.298947 18.919882 
L 302.13038 26.965263 
z
" clip-path="url(#p3fcce1499e)" style="fill: #3b8bc2"/>
    <path d="M 131.630526 245.060518 
L 133.602297 246.66 
L 137.633 246.66 
L 131.630526 241.790847 
L 123.510306 234.454737 
L 119.425263 228.571095 
L 115.670717 222.249474 
L 112.710873 210.044211 
L 111.032663 197.838947 
L 107.71589 185.633684 
L 107.22 184.289845 
L 107.22 185.633684 
L 107.22 197.838947 
L 107.22 197.973087 
L 109.308941 210.044211 
L 112.574835 222.249474 
L 119.425263 233.783708 
L 119.891162 234.454737 
z
M 265.888421 246.66 
L 278.093684 246.66 
L 285.643783 246.66 
L 290.298947 246.228707 
L 302.504211 245.594321 
L 314.709474 245.399687 
L 326.914737 245.321271 
L 339.12 244.699278 
L 339.12 242.28904 
L 326.914737 242.870453 
L 314.709474 242.876692 
L 302.504211 243.02417 
L 290.298947 243.639835 
L 278.093684 244.751268 
L 265.888421 246.313662 
L 263.761583 246.66 
z
M 113.697966 136.812632 
L 119.425263 125.755304 
L 120.184748 124.607368 
L 121.489488 112.402105 
L 119.425263 108.316724 
L 115.831839 100.196842 
L 107.22 91.077043 
L 107.22 96.100699 
L 111.087994 100.196842 
L 116.661839 112.402105 
L 115.630218 124.607368 
L 109.301558 136.812632 
L 107.22 139.976805 
L 107.22 146.659777 
z
M 118.100968 26.965263 
L 119.425263 25.712618 
L 131.346273 14.76 
L 127.269362 14.76 
L 119.425263 21.966891 
L 114.140989 26.965263 
L 107.22 33.948166 
L 107.22 37.943571 
z
M 326.914737 29.151947 
L 339.12 30.879111 
L 339.12 28.285755 
L 331.195444 26.965263 
L 326.914737 26.270699 
L 314.709474 23.7844 
L 302.504211 18.547604 
L 297.749775 14.76 
L 292.365203 14.76 
L 302.504211 22.837205 
L 314.709474 26.926773 
L 314.912269 26.965263 
z
" clip-path="url(#p3fcce1499e)" style="fill: #2070b4"/>
    <path d="M 119.425263 237.175598 
L 129.873255 246.66 
L 131.630526 246.66 
L 133.602297 246.66 
L 131.630526 245.060518 
L 119.891162 234.454737 
L 119.425263 233.783708 
L 112.574835 222.249474 
L 109.308941 210.044211 
L 107.22 197.973087 
L 107.22 210.044211 
L 107.22 214.266693 
L 109.478953 222.249474 
L 116.780472 234.454737 
z
M 290.298947 246.66 
L 302.504211 246.66 
L 314.709474 246.66 
L 326.914737 246.66 
L 339.12 246.66 
L 339.12 244.699278 
L 326.914737 245.321271 
L 314.709474 245.399687 
L 302.504211 245.594321 
L 290.298947 246.228707 
L 285.643783 246.66 
z
M 109.301558 136.812632 
L 115.630218 124.607368 
L 116.661839 112.402105 
L 111.087994 100.196842 
L 107.22 96.100699 
L 107.22 100.196842 
L 107.22 101.93137 
L 112.196643 112.402105 
L 111.241643 124.607368 
L 107.22 132.358847 
L 107.22 136.812632 
L 107.22 139.976805 
z
M 114.140989 26.965263 
L 119.425263 21.966891 
L 127.269362 14.76 
L 123.192451 14.76 
L 119.425263 18.221165 
L 110.18101 26.965263 
L 107.22 29.952762 
L 107.22 33.948166 
z
M 339.12 28.285755 
L 339.12 26.965263 
L 339.12 25.888165 
L 326.914737 23.745485 
L 314.709474 20.642027 
L 303.222377 14.76 
L 302.504211 14.76 
L 297.749775 14.76 
L 302.504211 18.547604 
L 314.709474 23.7844 
L 326.914737 26.270699 
L 331.195444 26.965263 
z
" clip-path="url(#p3fcce1499e)" style="fill: #0d57a1"/>
    <path d="M 119.425263 240.298474 
L 126.433104 246.66 
L 129.873255 246.66 
L 119.425263 237.175598 
L 116.780472 234.454737 
L 109.478953 222.249474 
L 107.22 214.266693 
L 107.22 222.249474 
L 107.22 223.613015 
L 113.744906 234.454737 
z
M 111.241643 124.607368 
L 112.196643 112.402105 
L 107.22 101.93137 
L 107.22 111.326032 
L 107.731448 112.402105 
L 107.22 119.457321 
L 107.22 124.607368 
L 107.22 132.358847 
z
M 110.18101 26.965263 
L 119.425263 18.221165 
L 123.192451 14.76 
L 119.425263 14.76 
L 119.153612 14.76 
L 107.22 26.107517 
L 107.22 26.965263 
L 107.22 29.952762 
z
M 314.709474 20.642027 
L 326.914737 23.745485 
L 339.12 25.888165 
L 339.12 23.693666 
L 326.914737 21.220272 
L 314.709474 17.499655 
L 309.359162 14.76 
L 303.222377 14.76 
z
" clip-path="url(#p3fcce1499e)" style="fill: #083c7d"/>
   </g>
   <g id="matplotlib.axis_1">
    <g id="xtick_1">
     <g id="line2d_1">
      <defs>
       <path id="mdac18ab641" d="M 0 0 
L 0 -3.5 
" style="stroke: #000000; stroke-width: 0.8"/>
      </defs>
      <g>
       <use xlink:href="#mdac18ab641" x="107.22" y="246.66" style="stroke: #000000; stroke-width: 0.8"/>
      </g>
     </g>
     <g id="text_1">
      <!-- −5 -->
      <g transform="translate(99.848906 257.758438) scale(0.1 -0.1)">
       <defs>
        <path id="DejaVuSans-2212" d="M 678 2272 
L 4684 2272 
L 4684 1741 
L 678 1741 
L 678 2272 
z
" transform="scale(0.015625)"/>
        <path id="DejaVuSans-35" d="M 691 4666 
L 3169 4666 
L 3169 4134 
L 1269 4134 
L 1269 2991 
Q 1406 3038 1543 3061 
Q 1681 3084 1819 3084 
Q 2600 3084 3056 2656 
Q 3513 2228 3513 1497 
Q 3513 744 3044 326 
Q 2575 -91 1722 -91 
Q 1428 -91 1123 -41 
Q 819 9 494 109 
L 494 744 
Q 775 591 1075 516 
Q 1375 441 1709 441 
Q 2250 441 2565 725 
Q 2881 1009 2881 1497 
Q 2881 1984 2565 2268 
Q 2250 2553 1709 2553 
Q 1456 2553 1204 2497 
Q 953 2441 691 2322 
L 691 4666 
z
" transform="scale(0.015625)"/>
       </defs>
       <use xlink:href="#DejaVuSans-2212"/>
       <use xlink:href="#DejaVuSans-35" transform="translate(83.789062 0)"/>
      </g>
     </g>
    </g>
    <g id="xtick_2">
     <g id="line2d_2">
      <g>
       <use xlink:href="#mdac18ab641" x="223.17" y="246.66" style="stroke: #000000; stroke-width: 0.8"/>
      </g>
     </g>
     <g id="text_2">
      <!-- 0 -->
      <g transform="translate(219.98875 257.758438) scale(0.1 -0.1)">
       <defs>
        <path id="DejaVuSans-30" d="M 2034 4250 
Q 1547 4250 1301 3770 
Q 1056 3291 1056 2328 
Q 1056 1369 1301 889 
Q 1547 409 2034 409 
Q 2525 409 2770 889 
Q 3016 1369 3016 2328 
Q 3016 3291 2770 3770 
Q 2525 4250 2034 4250 
z
M 2034 4750 
Q 2819 4750 3233 4129 
Q 3647 3509 3647 2328 
Q 3647 1150 3233 529 
Q 2819 -91 2034 -91 
Q 1250 -91 836 529 
Q 422 1150 422 2328 
Q 422 3509 836 4129 
Q 1250 4750 2034 4750 
z
" transform="scale(0.015625)"/>
       </defs>
       <use xlink:href="#DejaVuSans-30"/>
      </g>
     </g>
    </g>
    <g id="xtick_3">
     <g id="line2d_3">
      <g>
       <use xlink:href="#mdac18ab641" x="339.12" y="246.66" style="stroke: #000000; stroke-width: 0.8"/>
      </g>
     </g>
     <g id="text_3">
      <!-- 5 -->
      <g transform="translate(335.93875 257.758438) scale(0.1 -0.1)">
       <use xlink:href="#DejaVuSans-35"/>
      </g>
     </g>
    </g>
    <g id="text_4">
     <!-- $x$ -->
     <g transform="translate(219.69 272.95625) scale(0.12 -0.12)">
      <defs>
       <path id="Cmmi10-78" d="M 500 184 
Q 613 97 819 97 
Q 1019 97 1172 289 
Q 1325 481 1381 709 
L 1672 1844 
Q 1741 2153 1741 2266 
Q 1741 2425 1652 2544 
Q 1563 2663 1403 2663 
Q 1200 2663 1022 2536 
Q 844 2409 722 2214 
Q 600 2019 550 1819 
Q 538 1778 500 1778 
L 422 1778 
Q 372 1778 372 1838 
L 372 1856 
Q 434 2094 584 2320 
Q 734 2547 951 2687 
Q 1169 2828 1416 2828 
Q 1650 2828 1839 2703 
Q 2028 2578 2106 2363 
Q 2216 2559 2386 2693 
Q 2556 2828 2759 2828 
Q 2897 2828 3040 2779 
Q 3184 2731 3275 2631 
Q 3366 2531 3366 2381 
Q 3366 2219 3261 2101 
Q 3156 1984 2994 1984 
Q 2891 1984 2822 2050 
Q 2753 2116 2753 2216 
Q 2753 2350 2845 2451 
Q 2938 2553 3066 2572 
Q 2950 2663 2747 2663 
Q 2541 2663 2389 2472 
Q 2238 2281 2175 2047 
L 1894 916 
Q 1825 659 1825 494 
Q 1825 331 1917 214 
Q 2009 97 2163 97 
Q 2463 97 2698 361 
Q 2934 625 3009 941 
Q 3022 978 3059 978 
L 3138 978 
Q 3163 978 3178 961 
Q 3194 944 3194 922 
Q 3194 916 3188 903 
Q 3097 522 2806 225 
Q 2516 -72 2150 -72 
Q 1916 -72 1727 54 
Q 1538 181 1459 397 
Q 1359 209 1182 68 
Q 1006 -72 806 -72 
Q 669 -72 523 -23 
Q 378 25 287 125 
Q 197 225 197 378 
Q 197 528 301 651 
Q 406 775 563 775 
Q 669 775 741 711 
Q 813 647 813 544 
Q 813 409 723 309 
Q 634 209 500 184 
z
" transform="scale(0.015625)"/>
      </defs>
      <use xlink:href="#Cmmi10-78" transform="translate(0 0.8125)"/>
     </g>
    </g>
   </g>
   <g id="matplotlib.axis_2">
    <g id="ytick_1">
     <g id="line2d_4">
      <defs>
       <path id="me1f72c169e" d="M 0 0 
L 3.5 0 
" style="stroke: #000000; stroke-width: 0.8"/>
      </defs>
      <g>
       <use xlink:href="#me1f72c169e" x="107.22" y="246.66" style="stroke: #000000; stroke-width: 0.8"/>
      </g>
     </g>
     <g id="text_5">
      <!-- −5 -->
      <g transform="translate(88.977813 250.459219) scale(0.1 -0.1)">
       <use xlink:href="#DejaVuSans-2212"/>
       <use xlink:href="#DejaVuSans-35" transform="translate(83.789062 0)"/>
      </g>
     </g>
    </g>
    <g id="ytick_2">
     <g id="line2d_5">
      <g>
       <use xlink:href="#me1f72c169e" x="107.22" y="130.71" style="stroke: #000000; stroke-width: 0.8"/>
      </g>
     </g>
     <g id="text_6">
      <!-- 0 -->
      <g transform="translate(97.3575 134.509219) scale(0.1 -0.1)">
       <use xlink:href="#DejaVuSans-30"/>
      </g>
     </g>
    </g>
    <g id="ytick_3">
     <g id="line2d_6">
      <g>
       <use xlink:href="#me1f72c169e" x="107.22" y="14.76" style="stroke: #000000; stroke-width: 0.8"/>
      </g>
     </g>
     <g id="text_7">
      <!-- 5 -->
      <g transform="translate(97.3575 18.559219) scale(0.1 -0.1)">
       <use xlink:href="#DejaVuSans-35"/>
      </g>
     </g>
    </g>
    <g id="text_8">
     <!-- $y$ -->
     <g transform="translate(82.457813 133.71) rotate(-90) scale(0.12 -0.12)">
      <defs>
       <path id="Cmmi10-79" d="M 538 -916 
Q 672 -1147 1006 -1147 
Q 1309 -1147 1531 -934 
Q 1753 -722 1889 -420 
Q 2025 -119 2100 197 
Q 1816 -72 1484 -72 
Q 1231 -72 1053 15 
Q 875 103 776 276 
Q 678 450 678 697 
Q 678 906 734 1126 
Q 791 1347 892 1617 
Q 994 1888 1069 2088 
Q 1153 2322 1153 2472 
Q 1153 2663 1013 2663 
Q 759 2663 595 2402 
Q 431 2141 353 1819 
Q 341 1778 300 1778 
L 225 1778 
Q 172 1778 172 1838 
L 172 1856 
Q 275 2238 487 2533 
Q 700 2828 1025 2828 
Q 1253 2828 1411 2678 
Q 1569 2528 1569 2297 
Q 1569 2178 1516 2047 
Q 1488 1969 1388 1706 
Q 1288 1444 1234 1272 
Q 1181 1100 1147 934 
Q 1113 769 1113 603 
Q 1113 391 1203 244 
Q 1294 97 1491 97 
Q 1888 97 2203 581 
L 2688 2553 
Q 2709 2638 2787 2698 
Q 2866 2759 2956 2759 
Q 3034 2759 3092 2709 
Q 3150 2659 3150 2578 
Q 3150 2541 3144 2528 
L 2509 -19 
Q 2425 -347 2200 -647 
Q 1975 -947 1658 -1130 
Q 1341 -1313 997 -1313 
Q 831 -1313 668 -1248 
Q 506 -1184 406 -1056 
Q 306 -928 306 -756 
Q 306 -581 409 -453 
Q 513 -325 684 -325 
Q 788 -325 858 -389 
Q 928 -453 928 -556 
Q 928 -703 818 -812 
Q 709 -922 563 -922 
Q 556 -919 550 -917 
Q 544 -916 538 -916 
z
" transform="scale(0.015625)"/>
      </defs>
      <use xlink:href="#Cmmi10-79" transform="translate(0 0.8125)"/>
     </g>
    </g>
   </g>
   <g id="line2d_7">
    <defs>
     <path id="m6b99a7bd9d" d="M 0 3 
C 0.795609 3 1.55874 2.683901 2.12132 2.12132 
C 2.683901 1.55874 3 0.795609 3 0 
C 3 -0.795609 2.683901 -1.55874 2.12132 -2.12132 
C 1.55874 -2.683901 0.795609 -3 0 -3 
C -0.795609 -3 -1.55874 -2.683901 -2.12132 -2.12132 
C -2.683901 -1.55874 -3 -0.795609 -3 0 
C -3 0.795609 -2.683901 1.55874 -2.12132 2.12132 
C -1.55874 2.683901 -0.795609 3 0 3 
z
" style="stroke: #a60628"/>
    </defs>
    <g clip-path="url(#p3fcce1499e)">
     <use xlink:href="#m6b99a7bd9d" x="339.12" y="51.375789" style="fill: #a60628; stroke: #a60628"/>
     <use xlink:href="#m6b99a7bd9d" x="339.12" y="124.607368" style="fill: #a60628; stroke: #a60628"/>
     <use xlink:href="#m6b99a7bd9d" x="131.630526" y="161.223158" style="fill: #a60628; stroke: #a60628"/>
     <use xlink:href="#m6b99a7bd9d" x="290.298947" y="75.786316" style="fill: #a60628; stroke: #a60628"/>
     <use xlink:href="#m6b99a7bd9d" x="278.093684" y="222.249474" style="fill: #a60628; stroke: #a60628"/>
     <use xlink:href="#m6b99a7bd9d" x="314.709474" y="185.633684" style="fill: #a60628; stroke: #a60628"/>
     <use xlink:href="#m6b99a7bd9d" x="119.425263" y="63.581053" style="fill: #a60628; stroke: #a60628"/>
     <use xlink:href="#m6b99a7bd9d" x="156.041053" y="26.965263" style="fill: #a60628; stroke: #a60628"/>
     <use xlink:href="#m6b99a7bd9d" x="253.683158" y="14.76" style="fill: #a60628; stroke: #a60628"/>
     <use xlink:href="#m6b99a7bd9d" x="241.477895" y="75.786316" style="fill: #a60628; stroke: #a60628"/>
     <use xlink:href="#m6b99a7bd9d" x="290.298947" y="112.402105" style="fill: #a60628; stroke: #a60628"/>
     <use xlink:href="#m6b99a7bd9d" x="143.835789" y="222.249474" style="fill: #a60628; stroke: #a60628"/>
     <use xlink:href="#m6b99a7bd9d" x="229.272632" y="63.581053" style="fill: #a60628; stroke: #a60628"/>
     <use xlink:href="#m6b99a7bd9d" x="180.451579" y="246.66" style="fill: #a60628; stroke: #a60628"/>
     <use xlink:href="#m6b99a7bd9d" x="143.835789" y="75.786316" style="fill: #a60628; stroke: #a60628"/>
     <use xlink:href="#m6b99a7bd9d" x="241.477895" y="222.249474" style="fill: #a60628; stroke: #a60628"/>
     <use xlink:href="#m6b99a7bd9d" x="168.246316" y="75.786316" style="fill: #a60628; stroke: #a60628"/>
     <use xlink:href="#m6b99a7bd9d" x="204.862105" y="173.428421" style="fill: #a60628; stroke: #a60628"/>
     <use xlink:href="#m6b99a7bd9d" x="180.451579" y="112.402105" style="fill: #a60628; stroke: #a60628"/>
     <use xlink:href="#m6b99a7bd9d" x="339.12" y="222.249474" style="fill: #a60628; stroke: #a60628"/>
    </g>
   </g>
   <g id="patch_3">
    <path d="M 107.22 246.66 
L 107.22 14.76 
" style="fill: none; stroke: #bcbcbc; stroke-width: 0.8; stroke-linejoin: miter; stroke-linecap: square"/>
   </g>
   <g id="patch_4">
    <path d="M 339.12 246.66 
L 339.12 14.76 
" style="fill: none; stroke: #bcbcbc; stroke-width: 0.8; stroke-linejoin: miter; stroke-linecap: square"/>
   </g>
   <g id="patch_5">
    <path d="M 107.22 246.66 
L 339.12 246.66 
" style="fill: none; stroke: #bcbcbc; stroke-width: 0.8; stroke-linejoin: miter; stroke-linecap: square"/>
   </g>
   <g id="patch_6">
    <path d="M 107.22 14.76 
L 339.12 14.76 
" style="fill: none; stroke: #bcbcbc; stroke-width: 0.8; stroke-linejoin: miter; stroke-linecap: square"/>
   </g>
  </g>
  <g id="axes_2">
   <g id="patch_7">
    <path d="M 359.64 246.66 
L 371.235 246.66 
L 371.235 14.76 
L 359.64 14.76 
z
" style="fill: #eeeeee"/>
   </g>
   <g id="QuadMesh_1">
    <path d="M 359.64 246.66 
L 371.235 246.66 
L 371.235 223.47 
L 359.64 223.47 
L 359.64 246.66 
" clip-path="url(#pf9e5f015b2)" style="fill: #eef5fc"/>
    <path d="M 359.64 223.47 
L 371.235 223.47 
L 371.235 200.28 
L 359.64 200.28 
L 359.64 223.47 
" clip-path="url(#pf9e5f015b2)" style="fill: #d9e8f5"/>
    <path d="M 359.64 200.28 
L 371.235 200.28 
L 371.235 177.09 
L 359.64 177.09 
L 359.64 200.28 
" clip-path="url(#pf9e5f015b2)" style="fill: #c6dbef"/>
    <path d="M 359.64 177.09 
L 371.235 177.09 
L 371.235 153.9 
L 359.64 153.9 
L 359.64 177.09 
" clip-path="url(#pf9e5f015b2)" style="fill: #a6cee4"/>
    <path d="M 359.64 153.9 
L 371.235 153.9 
L 371.235 130.71 
L 359.64 130.71 
L 359.64 153.9 
" clip-path="url(#pf9e5f015b2)" style="fill: #7fb9da"/>
    <path d="M 359.64 130.71 
L 371.235 130.71 
L 371.235 107.52 
L 359.64 107.52 
L 359.64 130.71 
" clip-path="url(#pf9e5f015b2)" style="fill: #5ba3d0"/>
    <path d="M 359.64 107.52 
L 371.235 107.52 
L 371.235 84.33 
L 359.64 84.33 
L 359.64 107.52 
" clip-path="url(#pf9e5f015b2)" style="fill: #3b8bc2"/>
    <path d="M 359.64 84.33 
L 371.235 84.33 
L 371.235 61.14 
L 359.64 61.14 
L 359.64 84.33 
" clip-path="url(#pf9e5f015b2)" style="fill: #2070b4"/>
    <path d="M 359.64 61.14 
L 371.235 61.14 
L 371.235 37.95 
L 359.64 37.95 
L 359.64 61.14 
" clip-path="url(#pf9e5f015b2)" style="fill: #0d57a1"/>
    <path d="M 359.64 37.95 
L 371.235 37.95 
L 371.235 14.76 
L 359.64 14.76 
L 359.64 37.95 
" clip-path="url(#pf9e5f015b2)" style="fill: #083c7d"/>
   </g>
   <g id="matplotlib.axis_3"/>
   <g id="matplotlib.axis_4">
    <g id="ytick_4">
     <g id="line2d_8">
      <defs>
       <path id="mbedb4d864c" d="M 0 0 
L -3.5 0 
" style="stroke: #000000; stroke-width: 0.8"/>
      </defs>
      <g>
       <use xlink:href="#mbedb4d864c" x="371.235" y="246.66" style="stroke: #000000; stroke-width: 0.8"/>
      </g>
     </g>
     <g id="text_9">
      <!-- 6 -->
      <g transform="translate(374.735 250.459219) scale(0.1 -0.1)">
       <defs>
        <path id="DejaVuSans-36" d="M 2113 2584 
Q 1688 2584 1439 2293 
Q 1191 2003 1191 1497 
Q 1191 994 1439 701 
Q 1688 409 2113 409 
Q 2538 409 2786 701 
Q 3034 994 3034 1497 
Q 3034 2003 2786 2293 
Q 2538 2584 2113 2584 
z
M 3366 4563 
L 3366 3988 
Q 3128 4100 2886 4159 
Q 2644 4219 2406 4219 
Q 1781 4219 1451 3797 
Q 1122 3375 1075 2522 
Q 1259 2794 1537 2939 
Q 1816 3084 2150 3084 
Q 2853 3084 3261 2657 
Q 3669 2231 3669 1497 
Q 3669 778 3244 343 
Q 2819 -91 2113 -91 
Q 1303 -91 875 529 
Q 447 1150 447 2328 
Q 447 3434 972 4092 
Q 1497 4750 2381 4750 
Q 2619 4750 2861 4703 
Q 3103 4656 3366 4563 
z
" transform="scale(0.015625)"/>
       </defs>
       <use xlink:href="#DejaVuSans-36"/>
      </g>
     </g>
    </g>
    <g id="ytick_5">
     <g id="line2d_9">
      <g>
       <use xlink:href="#mbedb4d864c" x="371.235" y="200.28" style="stroke: #000000; stroke-width: 0.8"/>
      </g>
     </g>
     <g id="text_10">
      <!-- 8 -->
      <g transform="translate(374.735 204.079219) scale(0.1 -0.1)">
       <defs>
        <path id="DejaVuSans-38" d="M 2034 2216 
Q 1584 2216 1326 1975 
Q 1069 1734 1069 1313 
Q 1069 891 1326 650 
Q 1584 409 2034 409 
Q 2484 409 2743 651 
Q 3003 894 3003 1313 
Q 3003 1734 2745 1975 
Q 2488 2216 2034 2216 
z
M 1403 2484 
Q 997 2584 770 2862 
Q 544 3141 544 3541 
Q 544 4100 942 4425 
Q 1341 4750 2034 4750 
Q 2731 4750 3128 4425 
Q 3525 4100 3525 3541 
Q 3525 3141 3298 2862 
Q 3072 2584 2669 2484 
Q 3125 2378 3379 2068 
Q 3634 1759 3634 1313 
Q 3634 634 3220 271 
Q 2806 -91 2034 -91 
Q 1263 -91 848 271 
Q 434 634 434 1313 
Q 434 1759 690 2068 
Q 947 2378 1403 2484 
z
M 1172 3481 
Q 1172 3119 1398 2916 
Q 1625 2713 2034 2713 
Q 2441 2713 2670 2916 
Q 2900 3119 2900 3481 
Q 2900 3844 2670 4047 
Q 2441 4250 2034 4250 
Q 1625 4250 1398 4047 
Q 1172 3844 1172 3481 
z
" transform="scale(0.015625)"/>
       </defs>
       <use xlink:href="#DejaVuSans-38"/>
      </g>
     </g>
    </g>
    <g id="ytick_6">
     <g id="line2d_10">
      <g>
       <use xlink:href="#mbedb4d864c" x="371.235" y="153.9" style="stroke: #000000; stroke-width: 0.8"/>
      </g>
     </g>
     <g id="text_11">
      <!-- 10 -->
      <g transform="translate(374.735 157.699219) scale(0.1 -0.1)">
       <defs>
        <path id="DejaVuSans-31" d="M 794 531 
L 1825 531 
L 1825 4091 
L 703 3866 
L 703 4441 
L 1819 4666 
L 2450 4666 
L 2450 531 
L 3481 531 
L 3481 0 
L 794 0 
L 794 531 
z
" transform="scale(0.015625)"/>
       </defs>
       <use xlink:href="#DejaVuSans-31"/>
       <use xlink:href="#DejaVuSans-30" transform="translate(63.623047 0)"/>
      </g>
     </g>
    </g>
    <g id="ytick_7">
     <g id="line2d_11">
      <g>
       <use xlink:href="#mbedb4d864c" x="371.235" y="107.52" style="stroke: #000000; stroke-width: 0.8"/>
      </g>
     </g>
     <g id="text_12">
      <!-- 12 -->
      <g transform="translate(374.735 111.319219) scale(0.1 -0.1)">
       <defs>
        <path id="DejaVuSans-32" d="M 1228 531 
L 3431 531 
L 3431 0 
L 469 0 
L 469 531 
Q 828 903 1448 1529 
Q 2069 2156 2228 2338 
Q 2531 2678 2651 2914 
Q 2772 3150 2772 3378 
Q 2772 3750 2511 3984 
Q 2250 4219 1831 4219 
Q 1534 4219 1204 4116 
Q 875 4013 500 3803 
L 500 4441 
Q 881 4594 1212 4672 
Q 1544 4750 1819 4750 
Q 2544 4750 2975 4387 
Q 3406 4025 3406 3419 
Q 3406 3131 3298 2873 
Q 3191 2616 2906 2266 
Q 2828 2175 2409 1742 
Q 1991 1309 1228 531 
z
" transform="scale(0.015625)"/>
       </defs>
       <use xlink:href="#DejaVuSans-31"/>
       <use xlink:href="#DejaVuSans-32" transform="translate(63.623047 0)"/>
      </g>
     </g>
    </g>
    <g id="ytick_8">
     <g id="line2d_12">
      <g>
       <use xlink:href="#mbedb4d864c" x="371.235" y="61.14" style="stroke: #000000; stroke-width: 0.8"/>
      </g>
     </g>
     <g id="text_13">
      <!-- 14 -->
      <g transform="translate(374.735 64.939219) scale(0.1 -0.1)">
       <defs>
        <path id="DejaVuSans-34" d="M 2419 4116 
L 825 1625 
L 2419 1625 
L 2419 4116 
z
M 2253 4666 
L 3047 4666 
L 3047 1625 
L 3713 1625 
L 3713 1100 
L 3047 1100 
L 3047 0 
L 2419 0 
L 2419 1100 
L 313 1100 
L 313 1709 
L 2253 4666 
z
" transform="scale(0.015625)"/>
       </defs>
       <use xlink:href="#DejaVuSans-31"/>
       <use xlink:href="#DejaVuSans-34" transform="translate(63.623047 0)"/>
      </g>
     </g>
    </g>
    <g id="ytick_9">
     <g id="line2d_13">
      <g>
       <use xlink:href="#mbedb4d864c" x="371.235" y="14.76" style="stroke: #000000; stroke-width: 0.8"/>
      </g>
     </g>
     <g id="text_14">
      <!-- 16 -->
      <g transform="translate(374.735 18.559219) scale(0.1 -0.1)">
       <use xlink:href="#DejaVuSans-31"/>
       <use xlink:href="#DejaVuSans-36" transform="translate(63.623047 0)"/>
      </g>
     </g>
    </g>
    <g id="text_15">
     <!-- Posterior standard deviation -->
     <g transform="translate(400.578125 215.53875) rotate(-90) scale(0.12 -0.12)">
      <defs>
       <path id="DejaVuSans-50" d="M 1259 4147 
L 1259 2394 
L 2053 2394 
Q 2494 2394 2734 2622 
Q 2975 2850 2975 3272 
Q 2975 3691 2734 3919 
Q 2494 4147 2053 4147 
L 1259 4147 
z
M 628 4666 
L 2053 4666 
Q 2838 4666 3239 4311 
Q 3641 3956 3641 3272 
Q 3641 2581 3239 2228 
Q 2838 1875 2053 1875 
L 1259 1875 
L 1259 0 
L 628 0 
L 628 4666 
z
" transform="scale(0.015625)"/>
       <path id="DejaVuSans-6f" d="M 1959 3097 
Q 1497 3097 1228 2736 
Q 959 2375 959 1747 
Q 959 1119 1226 758 
Q 1494 397 1959 397 
Q 2419 397 2687 759 
Q 2956 1122 2956 1747 
Q 2956 2369 2687 2733 
Q 2419 3097 1959 3097 
z
M 1959 3584 
Q 2709 3584 3137 3096 
Q 3566 2609 3566 1747 
Q 3566 888 3137 398 
Q 2709 -91 1959 -91 
Q 1206 -91 779 398 
Q 353 888 353 1747 
Q 353 2609 779 3096 
Q 1206 3584 1959 3584 
z
" transform="scale(0.015625)"/>
       <path id="DejaVuSans-73" d="M 2834 3397 
L 2834 2853 
Q 2591 2978 2328 3040 
Q 2066 3103 1784 3103 
Q 1356 3103 1142 2972 
Q 928 2841 928 2578 
Q 928 2378 1081 2264 
Q 1234 2150 1697 2047 
L 1894 2003 
Q 2506 1872 2764 1633 
Q 3022 1394 3022 966 
Q 3022 478 2636 193 
Q 2250 -91 1575 -91 
Q 1294 -91 989 -36 
Q 684 19 347 128 
L 347 722 
Q 666 556 975 473 
Q 1284 391 1588 391 
Q 1994 391 2212 530 
Q 2431 669 2431 922 
Q 2431 1156 2273 1281 
Q 2116 1406 1581 1522 
L 1381 1569 
Q 847 1681 609 1914 
Q 372 2147 372 2553 
Q 372 3047 722 3315 
Q 1072 3584 1716 3584 
Q 2034 3584 2315 3537 
Q 2597 3491 2834 3397 
z
" transform="scale(0.015625)"/>
       <path id="DejaVuSans-74" d="M 1172 4494 
L 1172 3500 
L 2356 3500 
L 2356 3053 
L 1172 3053 
L 1172 1153 
Q 1172 725 1289 603 
Q 1406 481 1766 481 
L 2356 481 
L 2356 0 
L 1766 0 
Q 1100 0 847 248 
Q 594 497 594 1153 
L 594 3053 
L 172 3053 
L 172 3500 
L 594 3500 
L 594 4494 
L 1172 4494 
z
" transform="scale(0.015625)"/>
       <path id="DejaVuSans-65" d="M 3597 1894 
L 3597 1613 
L 953 1613 
Q 991 1019 1311 708 
Q 1631 397 2203 397 
Q 2534 397 2845 478 
Q 3156 559 3463 722 
L 3463 178 
Q 3153 47 2828 -22 
Q 2503 -91 2169 -91 
Q 1331 -91 842 396 
Q 353 884 353 1716 
Q 353 2575 817 3079 
Q 1281 3584 2069 3584 
Q 2775 3584 3186 3129 
Q 3597 2675 3597 1894 
z
M 3022 2063 
Q 3016 2534 2758 2815 
Q 2500 3097 2075 3097 
Q 1594 3097 1305 2825 
Q 1016 2553 972 2059 
L 3022 2063 
z
" transform="scale(0.015625)"/>
       <path id="DejaVuSans-72" d="M 2631 2963 
Q 2534 3019 2420 3045 
Q 2306 3072 2169 3072 
Q 1681 3072 1420 2755 
Q 1159 2438 1159 1844 
L 1159 0 
L 581 0 
L 581 3500 
L 1159 3500 
L 1159 2956 
Q 1341 3275 1631 3429 
Q 1922 3584 2338 3584 
Q 2397 3584 2469 3576 
Q 2541 3569 2628 3553 
L 2631 2963 
z
" transform="scale(0.015625)"/>
       <path id="DejaVuSans-69" d="M 603 3500 
L 1178 3500 
L 1178 0 
L 603 0 
L 603 3500 
z
M 603 4863 
L 1178 4863 
L 1178 4134 
L 603 4134 
L 603 4863 
z
" transform="scale(0.015625)"/>
       <path id="DejaVuSans-20" transform="scale(0.015625)"/>
       <path id="DejaVuSans-61" d="M 2194 1759 
Q 1497 1759 1228 1600 
Q 959 1441 959 1056 
Q 959 750 1161 570 
Q 1363 391 1709 391 
Q 2188 391 2477 730 
Q 2766 1069 2766 1631 
L 2766 1759 
L 2194 1759 
z
M 3341 1997 
L 3341 0 
L 2766 0 
L 2766 531 
Q 2569 213 2275 61 
Q 1981 -91 1556 -91 
Q 1019 -91 701 211 
Q 384 513 384 1019 
Q 384 1609 779 1909 
Q 1175 2209 1959 2209 
L 2766 2209 
L 2766 2266 
Q 2766 2663 2505 2880 
Q 2244 3097 1772 3097 
Q 1472 3097 1187 3025 
Q 903 2953 641 2809 
L 641 3341 
Q 956 3463 1253 3523 
Q 1550 3584 1831 3584 
Q 2591 3584 2966 3190 
Q 3341 2797 3341 1997 
z
" transform="scale(0.015625)"/>
       <path id="DejaVuSans-6e" d="M 3513 2113 
L 3513 0 
L 2938 0 
L 2938 2094 
Q 2938 2591 2744 2837 
Q 2550 3084 2163 3084 
Q 1697 3084 1428 2787 
Q 1159 2491 1159 1978 
L 1159 0 
L 581 0 
L 581 3500 
L 1159 3500 
L 1159 2956 
Q 1366 3272 1645 3428 
Q 1925 3584 2291 3584 
Q 2894 3584 3203 3211 
Q 3513 2838 3513 2113 
z
" transform="scale(0.015625)"/>
       <path id="DejaVuSans-64" d="M 2906 2969 
L 2906 4863 
L 3481 4863 
L 3481 0 
L 2906 0 
L 2906 525 
Q 2725 213 2448 61 
Q 2172 -91 1784 -91 
Q 1150 -91 751 415 
Q 353 922 353 1747 
Q 353 2572 751 3078 
Q 1150 3584 1784 3584 
Q 2172 3584 2448 3432 
Q 2725 3281 2906 2969 
z
M 947 1747 
Q 947 1113 1208 752 
Q 1469 391 1925 391 
Q 2381 391 2643 752 
Q 2906 1113 2906 1747 
Q 2906 2381 2643 2742 
Q 2381 3103 1925 3103 
Q 1469 3103 1208 2742 
Q 947 2381 947 1747 
z
" transform="scale(0.015625)"/>
       <path id="DejaVuSans-76" d="M 191 3500 
L 800 3500 
L 1894 563 
L 2988 3500 
L 3597 3500 
L 2284 0 
L 1503 0 
L 191 3500 
z
" transform="scale(0.015625)"/>
      </defs>
      <use xlink:href="#DejaVuSans-50"/>
      <use xlink:href="#DejaVuSans-6f" transform="translate(56.677734 0)"/>
      <use xlink:href="#DejaVuSans-73" transform="translate(117.859375 0)"/>
      <use xlink:href="#DejaVuSans-74" transform="translate(169.958984 0)"/>
      <use xlink:href="#DejaVuSans-65" transform="translate(209.167969 0)"/>
      <use xlink:href="#DejaVuSans-72" transform="translate(270.691406 0)"/>
      <use xlink:href="#DejaVuSans-69" transform="translate(311.804688 0)"/>
      <use xlink:href="#DejaVuSans-6f" transform="translate(339.587891 0)"/>
      <use xlink:href="#DejaVuSans-72" transform="translate(400.769531 0)"/>
      <use xlink:href="#DejaVuSans-20" transform="translate(441.882812 0)"/>
      <use xlink:href="#DejaVuSans-73" transform="translate(473.669922 0)"/>
      <use xlink:href="#DejaVuSans-74" transform="translate(525.769531 0)"/>
      <use xlink:href="#DejaVuSans-61" transform="translate(564.978516 0)"/>
      <use xlink:href="#DejaVuSans-6e" transform="translate(626.257812 0)"/>
      <use xlink:href="#DejaVuSans-64" transform="translate(689.636719 0)"/>
      <use xlink:href="#DejaVuSans-61" transform="translate(753.113281 0)"/>
      <use xlink:href="#DejaVuSans-72" transform="translate(814.392578 0)"/>
      <use xlink:href="#DejaVuSans-64" transform="translate(853.755859 0)"/>
      <use xlink:href="#DejaVuSans-20" transform="translate(917.232422 0)"/>
      <use xlink:href="#DejaVuSans-64" transform="translate(949.019531 0)"/>
      <use xlink:href="#DejaVuSans-65" transform="translate(1012.496094 0)"/>
      <use xlink:href="#DejaVuSans-76" transform="translate(1074.019531 0)"/>
      <use xlink:href="#DejaVuSans-69" transform="translate(1133.199219 0)"/>
      <use xlink:href="#DejaVuSans-61" transform="translate(1160.982422 0)"/>
      <use xlink:href="#DejaVuSans-74" transform="translate(1222.261719 0)"/>
      <use xlink:href="#DejaVuSans-69" transform="translate(1261.470703 0)"/>
      <use xlink:href="#DejaVuSans-6f" transform="translate(1289.253906 0)"/>
      <use xlink:href="#DejaVuSans-6e" transform="translate(1350.435547 0)"/>
     </g>
    </g>
   </g>
   <g id="LineCollection_1"/>
   <g id="patch_8">
    <path d="M 359.64 246.66 
L 365.4375 246.66 
L 371.235 246.66 
L 371.235 14.76 
L 365.4375 14.76 
L 359.64 14.76 
L 359.64 246.66 
z
" style="fill: none; stroke: #bcbcbc; stroke-width: 0.8; stroke-linejoin: miter; stroke-linecap: square"/>
   </g>
  </g>
 </g>
 <defs>
  <clipPath id="p3fcce1499e">
   <rect x="107.22" y="14.76" width="231.9" height="231.9"/>
  </clipPath>
  <clipPath id="pf9e5f015b2">
   <rect x="359.64" y="14.76" width="11.595" height="231.9"/>
  </clipPath>
 </defs>
</svg>
