<?xml version="1.0" encoding="utf-8" standalone="no"?>
<!DOCTYPE svg PUBLIC "-//W3C//DTD SVG 1.1//EN"
  "http://www.w3.org/Graphics/SVG/1.1/DTD/svg11.dtd">
<svg xmlns:xlink="http://www.w3.org/1999/xlink" width="432pt" height="288pt" viewBox="0 0 432 288" xmlns="http://www.w3.org/2000/svg" version="1.1">
 <metadata>
  <rdf:RDF xmlns:dc="http://purl.org/dc/elements/1.1/" xmlns:cc="http://creativecommons.org/ns#" xmlns:rdf="http://www.w3.org/1999/02/22-rdf-syntax-ns#">
   <cc:Work>
    <dc:type rdf:resource="http://purl.org/dc/dcmitype/StillImage"/>
    <dc:date>2025-04-29T01:15:46.837229</dc:date>
    <dc:format>image/svg+xml</dc:format>
    <dc:creator>
     <cc:Agent>
      <dc:title>Matplotlib v3.10.0, https://matplotlib.org/</dc:title>
     </cc:Agent>
    </dc:creator>
   </cc:Work>
  </rdf:RDF>
 </metadata>
 <defs>
  <style type="text/css">*{stroke-linejoin: round; stroke-linecap: butt}</style>
 </defs>
 <g id="figure_1">
  <g id="patch_1">
   <path d="M 0 288 
L 432 288 
L 432 0 
L 0 0 
z
" style="fill: #ffffff"/>
  </g>
  <g id="axes_1">
   <g id="patch_2">
    <path d="M 64.421 246.66 
L 296.321 246.66 
L 296.321 14.76 
L 64.421 14.76 
z
" style="fill: #eeeeee"/>
   </g>
   <g id="matplotlib.axis_1">
    <g id="xtick_1">
     <g id="line2d_1">
      <defs>
       <path id="m64f2988a81" d="M 0 0 
L 0 -3.5 
" style="stroke: #000000; stroke-width: 0.8"/>
      </defs>
      <g>
       <use xlink:href="#m64f2988a81" x="64.421" y="246.66" style="stroke: #000000; stroke-width: 0.8"/>
      </g>
     </g>
     <g id="text_1">
      <!-- −5 -->
      <g transform="translate(57.049906 257.758438) scale(0.1 -0.1)">
       <defs>
        <path id="DejaVuSans-2212" d="M 678 2272 
L 4684 2272 
L 4684 1741 
L 678 1741 
L 678 2272 
z
" transform="scale(0.015625)"/>
        <path id="DejaVuSans-35" d="M 691 4666 
L 3169 4666 
L 3169 4134 
L 1269 4134 
L 1269 2991 
Q 1406 3038 1543 3061 
Q 1681 3084 1819 3084 
Q 2600 3084 3056 2656 
Q 3513 2228 3513 1497 
Q 3513 744 3044 326 
Q 2575 -91 1722 -91 
Q 1428 -91 1123 -41 
Q 819 9 494 109 
L 494 744 
Q 775 591 1075 516 
Q 1375 441 1709 441 
Q 2250 441 2565 725 
Q 2881 1009 2881 1497 
Q 2881 1984 2565 2268 
Q 2250 2553 1709 2553 
Q 1456 2553 1204 2497 
Q 953 2441 691 2322 
L 691 4666 
z
" transform="scale(0.015625)"/>
       </defs>
       <use xlink:href="#DejaVuSans-2212"/>
       <use xlink:href="#DejaVuSans-35" transform="translate(83.789062 0)"/>
      </g>
     </g>
    </g>
    <g id="xtick_2">
     <g id="line2d_2">
      <g>
       <use xlink:href="#m64f2988a81" x="180.371" y="246.66" style="stroke: #000000; stroke-width: 0.8"/>
      </g>
     </g>
     <g id="text_2">
      <!-- 0 -->
      <g transform="translate(177.18975 257.758438) scale(0.1 -0.1)">
       <defs>
        <path id="DejaVuSans-30" d="M 2034 4250 
Q 1547 4250 1301 3770 
Q 1056 3291 1056 2328 
Q 1056 1369 1301 889 
Q 1547 409 2034 409 
Q 2525 409 2770 889 
Q 3016 1369 3016 2328 
Q 3016 3291 2770 3770 
Q 2525 4250 2034 4250 
z
M 2034 4750 
Q 2819 4750 3233 4129 
Q 3647 3509 3647 2328 
Q 3647 1150 3233 529 
Q 2819 -91 2034 -91 
Q 1250 -91 836 529 
Q 422 1150 422 2328 
Q 422 3509 836 4129 
Q 1250 4750 2034 4750 
z
" transform="scale(0.015625)"/>
       </defs>
       <use xlink:href="#DejaVuSans-30"/>
      </g>
     </g>
    </g>
    <g id="xtick_3">
     <g id="line2d_3">
      <g>
       <use xlink:href="#m64f2988a81" x="296.321" y="246.66" style="stroke: #000000; stroke-width: 0.8"/>
      </g>
     </g>
     <g id="text_3">
      <!-- 5 -->
      <g transform="translate(293.13975 257.758438) scale(0.1 -0.1)">
       <use xlink:href="#DejaVuSans-35"/>
      </g>
     </g>
    </g>
    <g id="text_4">
     <!-- $x$ -->
     <g transform="translate(176.891 272.95625) scale(0.12 -0.12)">
      <defs>
       <path id="Cmmi10-78" d="M 500 184 
Q 613 97 819 97 
Q 1019 97 1172 289 
Q 1325 481 1381 709 
L 1672 1844 
Q 1741 2153 1741 2266 
Q 1741 2425 1652 2544 
Q 1563 2663 1403 2663 
Q 1200 2663 1022 2536 
Q 844 2409 722 2214 
Q 600 2019 550 1819 
Q 538 1778 500 1778 
L 422 1778 
Q 372 1778 372 1838 
L 372 1856 
Q 434 2094 584 2320 
Q 734 2547 951 2687 
Q 1169 2828 1416 2828 
Q 1650 2828 1839 2703 
Q 2028 2578 2106 2363 
Q 2216 2559 2386 2693 
Q 2556 2828 2759 2828 
Q 2897 2828 3040 2779 
Q 3184 2731 3275 2631 
Q 3366 2531 3366 2381 
Q 3366 2219 3261 2101 
Q 3156 1984 2994 1984 
Q 2891 1984 2822 2050 
Q 2753 2116 2753 2216 
Q 2753 2350 2845 2451 
Q 2938 2553 3066 2572 
Q 2950 2663 2747 2663 
Q 2541 2663 2389 2472 
Q 2238 2281 2175 2047 
L 1894 916 
Q 1825 659 1825 494 
Q 1825 331 1917 214 
Q 2009 97 2163 97 
Q 2463 97 2698 361 
Q 2934 625 3009 941 
Q 3022 978 3059 978 
L 3138 978 
Q 3163 978 3178 961 
Q 3194 944 3194 922 
Q 3194 916 3188 903 
Q 3097 522 2806 225 
Q 2516 -72 2150 -72 
Q 1916 -72 1727 54 
Q 1538 181 1459 397 
Q 1359 209 1182 68 
Q 1006 -72 806 -72 
Q 669 -72 523 -23 
Q 378 25 287 125 
Q 197 225 197 378 
Q 197 528 301 651 
Q 406 775 563 775 
Q 669 775 741 711 
Q 813 647 813 544 
Q 813 409 723 309 
Q 634 209 500 184 
z
" transform="scale(0.015625)"/>
      </defs>
      <use xlink:href="#Cmmi10-78" transform="translate(0 0.8125)"/>
     </g>
    </g>
   </g>
   <g id="matplotlib.axis_2">
    <g id="ytick_1">
     <g id="line2d_4">
      <defs>
       <path id="mf3cc85f0d1" d="M 0 0 
L 3.5 0 
" style="stroke: #000000; stroke-width: 0.8"/>
      </defs>
      <g>
       <use xlink:href="#mf3cc85f0d1" x="64.421" y="246.66" style="stroke: #000000; stroke-width: 0.8"/>
      </g>
     </g>
     <g id="text_5">
      <!-- −5 -->
      <g transform="translate(46.178812 250.459219) scale(0.1 -0.1)">
       <use xlink:href="#DejaVuSans-2212"/>
       <use xlink:href="#DejaVuSans-35" transform="translate(83.789062 0)"/>
      </g>
     </g>
    </g>
    <g id="ytick_2">
     <g id="line2d_5">
      <g>
       <use xlink:href="#mf3cc85f0d1" x="64.421" y="130.71" style="stroke: #000000; stroke-width: 0.8"/>
      </g>
     </g>
     <g id="text_6">
      <!-- 0 -->
      <g transform="translate(54.5585 134.509219) scale(0.1 -0.1)">
       <use xlink:href="#DejaVuSans-30"/>
      </g>
     </g>
    </g>
    <g id="ytick_3">
     <g id="line2d_6">
      <g>
       <use xlink:href="#mf3cc85f0d1" x="64.421" y="14.76" style="stroke: #000000; stroke-width: 0.8"/>
      </g>
     </g>
     <g id="text_7">
      <!-- 5 -->
      <g transform="translate(54.5585 18.559219) scale(0.1 -0.1)">
       <use xlink:href="#DejaVuSans-35"/>
      </g>
     </g>
    </g>
    <g id="text_8">
     <!-- $y$ -->
     <g transform="translate(39.658812 133.71) rotate(-90) scale(0.12 -0.12)">
      <defs>
       <path id="Cmmi10-79" d="M 538 -916 
Q 672 -1147 1006 -1147 
Q 1309 -1147 1531 -934 
Q 1753 -722 1889 -420 
Q 2025 -119 2100 197 
Q 1816 -72 1484 -72 
Q 1231 -72 1053 15 
Q 875 103 776 276 
Q 678 450 678 697 
Q 678 906 734 1126 
Q 791 1347 892 1617 
Q 994 1888 1069 2088 
Q 1153 2322 1153 2472 
Q 1153 2663 1013 2663 
Q 759 2663 595 2402 
Q 431 2141 353 1819 
Q 341 1778 300 1778 
L 225 1778 
Q 172 1778 172 1838 
L 172 1856 
Q 275 2238 487 2533 
Q 700 2828 1025 2828 
Q 1253 2828 1411 2678 
Q 1569 2528 1569 2297 
Q 1569 2178 1516 2047 
Q 1488 1969 1388 1706 
Q 1288 1444 1234 1272 
Q 1181 1100 1147 934 
Q 1113 769 1113 603 
Q 1113 391 1203 244 
Q 1294 97 1491 97 
Q 1888 97 2203 581 
L 2688 2553 
Q 2709 2638 2787 2698 
Q 2866 2759 2956 2759 
Q 3034 2759 3092 2709 
Q 3150 2659 3150 2578 
Q 3150 2541 3144 2528 
L 2509 -19 
Q 2425 -347 2200 -647 
Q 1975 -947 1658 -1130 
Q 1341 -1313 997 -1313 
Q 831 -1313 668 -1248 
Q 506 -1184 406 -1056 
Q 306 -928 306 -756 
Q 306 -581 409 -453 
Q 513 -325 684 -325 
Q 788 -325 858 -389 
Q 928 -453 928 -556 
Q 928 -703 818 -812 
Q 709 -922 563 -922 
Q 556 -919 550 -917 
Q 544 -916 538 -916 
z
" transform="scale(0.015625)"/>
      </defs>
      <use xlink:href="#Cmmi10-79" transform="translate(0 0.8125)"/>
     </g>
    </g>
   </g>
   <g id="QuadContourSet_1">
    <path d="M 296.321 246.66 
L 284.115737 241.959837 
L 271.910474 237.095642 
L 265.638325 234.454737 
L 259.705211 231.425062 
L 247.499947 224.997679 
L 242.439228 222.249474 
L 235.294684 217.407716 
L 224.429023 210.044211 
L 223.089421 208.837097 
L 210.884158 197.838947 
L 210.884158 197.838947 
L 201.804633 185.633684 
L 198.678895 177.365603 
L 197.190448 173.428421 
L 198.509377 161.223158 
L 198.678895 160.974071 
L 209.945291 149.017895 
L 210.884158 148.524753 
L 223.089421 143.86705 
L 235.294684 141.017806 
L 247.499947 139.55645 
L 259.705211 139.183438 
L 271.910474 139.67964 
L 284.115737 140.881053 
L 296.321 142.662491 
" clip-path="url(#p6fd2c7926a)" style="fill: none; stroke: #000000; stroke-width: 2"/>
    <path d="M 187.805896 246.66 
L 186.473632 245.875014 
L 174.268368 238.515053 
L 167.563503 234.454737 
L 162.063105 230.671658 
L 149.857842 222.275892 
L 149.820172 222.249474 
L 137.652579 212.442757 
L 134.676604 210.044211 
L 125.447316 201.300674 
L 121.793271 197.838947 
L 113.242053 188.014143 
L 111.170172 185.633684 
L 102.923787 173.428421 
L 101.036789 169.388651 
L 97.222645 161.223158 
L 94.289514 149.017895 
L 94.610533 136.812632 
L 98.985905 124.607368 
L 101.036789 121.796044 
L 109.233461 112.402105 
L 113.242053 109.460549 
L 125.447316 102.121833 
L 129.430978 100.196842 
L 137.652579 97.222193 
L 149.857842 93.74382 
L 162.063105 91.140425 
L 174.268368 89.297382 
L 186.473632 88.119249 
L 189.016395 87.991579 
L 198.678895 87.590368 
L 210.884158 87.522146 
L 223.089421 87.853332 
L 225.462667 87.991579 
L 235.294684 88.625903 
L 247.499947 89.786471 
L 259.705211 91.277611 
L 271.910474 93.06723 
L 284.115737 95.127258 
L 296.321 97.433036 
" clip-path="url(#p6fd2c7926a)" style="fill: none; stroke: #000000; stroke-width: 2"/>
    <path d="M 123.815919 246.66 
L 113.242053 239.563917 
L 105.628869 234.454737 
L 101.036789 231.031859 
L 89.254481 222.249474 
L 88.831526 221.894964 
L 76.626263 211.60026 
L 74.783959 210.044211 
L 64.421 200.103272 
M 64.421 72.943994 
L 76.626263 67.631708 
L 87.938458 63.581053 
L 88.831526 63.318574 
L 101.036789 60.286899 
L 113.242053 57.866214 
L 125.447316 55.9972 
L 137.652579 54.627976 
L 149.857842 53.712968 
L 162.063105 53.21198 
L 174.268368 53.089422 
L 186.473632 53.313672 
L 198.678895 53.856534 
L 210.884158 54.692787 
L 223.089421 55.799805 
L 235.294684 57.15723 
L 247.499947 58.746694 
L 259.705211 60.551584 
L 271.910474 62.556835 
L 277.543672 63.581053 
L 284.115737 64.865817 
L 296.321 67.460476 
" clip-path="url(#p6fd2c7926a)" style="fill: none; stroke: #000000; stroke-width: 2"/>
    <path d="M 73.524512 246.66 
L 64.421 240.199443 
M 64.421 32.815869 
L 76.626263 30.479959 
L 88.831526 28.614164 
L 101.036789 27.180261 
L 103.515984 26.965263 
L 113.242053 26.222461 
L 125.447316 25.613865 
L 137.652579 25.311019 
L 149.857842 25.293495 
L 162.063105 25.542645 
L 174.268368 26.041411 
L 186.473632 26.774158 
L 188.882565 26.965263 
L 198.678895 27.794351 
L 210.884158 29.052656 
L 223.089421 30.517541 
L 235.294684 32.17607 
L 247.499947 34.016361 
L 259.705211 36.027488 
L 271.910474 38.199381 
L 276.954485 39.170526 
L 284.115737 40.635668 
L 296.321 43.301346 
" clip-path="url(#p6fd2c7926a)" style="fill: none; stroke: #000000; stroke-width: 2"/>
    <path d="M 258.833406 14.76 
L 259.705211 14.91851 
L 271.910474 17.316658 
L 284.115737 19.847346 
L 296.321 22.503585 
" clip-path="url(#p6fd2c7926a)" style="fill: none; stroke: #000000; stroke-width: 2"/>
    <path clip-path="url(#p6fd2c7926a)" style="fill: none; stroke: #000000; stroke-width: 2"/>
   </g>
   <g id="line2d_7">
    <defs>
     <path id="m0504fde5f9" d="M 0 3 
C 0.795609 3 1.55874 2.683901 2.12132 2.12132 
C 2.683901 1.55874 3 0.795609 3 0 
C 3 -0.795609 2.683901 -1.55874 2.12132 -2.12132 
C 1.55874 -2.683901 0.795609 -3 0 -3 
C -0.795609 -3 -1.55874 -2.683901 -2.12132 -2.12132 
C -2.683901 -1.55874 -3 -0.795609 -3 0 
C -3 0.795609 -2.683901 1.55874 -2.12132 2.12132 
C -1.55874 2.683901 -0.795609 3 0 3 
z
" style="stroke: #a60628"/>
    </defs>
    <g clip-path="url(#p6fd2c7926a)">
     <use xlink:href="#m0504fde5f9" x="296.321" y="51.375789" style="fill: #a60628; stroke: #a60628"/>
     <use xlink:href="#m0504fde5f9" x="296.321" y="124.607368" style="fill: #a60628; stroke: #a60628"/>
     <use xlink:href="#m0504fde5f9" x="88.831526" y="161.223158" style="fill: #a60628; stroke: #a60628"/>
     <use xlink:href="#m0504fde5f9" x="247.499947" y="75.786316" style="fill: #a60628; stroke: #a60628"/>
     <use xlink:href="#m0504fde5f9" x="235.294684" y="222.249474" style="fill: #a60628; stroke: #a60628"/>
     <use xlink:href="#m0504fde5f9" x="271.910474" y="185.633684" style="fill: #a60628; stroke: #a60628"/>
     <use xlink:href="#m0504fde5f9" x="76.626263" y="63.581053" style="fill: #a60628; stroke: #a60628"/>
     <use xlink:href="#m0504fde5f9" x="113.242053" y="26.965263" style="fill: #a60628; stroke: #a60628"/>
     <use xlink:href="#m0504fde5f9" x="210.884158" y="14.76" style="fill: #a60628; stroke: #a60628"/>
     <use xlink:href="#m0504fde5f9" x="198.678895" y="75.786316" style="fill: #a60628; stroke: #a60628"/>
     <use xlink:href="#m0504fde5f9" x="247.499947" y="112.402105" style="fill: #a60628; stroke: #a60628"/>
     <use xlink:href="#m0504fde5f9" x="101.036789" y="222.249474" style="fill: #a60628; stroke: #a60628"/>
     <use xlink:href="#m0504fde5f9" x="186.473632" y="63.581053" style="fill: #a60628; stroke: #a60628"/>
     <use xlink:href="#m0504fde5f9" x="137.652579" y="246.66" style="fill: #a60628; stroke: #a60628"/>
     <use xlink:href="#m0504fde5f9" x="101.036789" y="75.786316" style="fill: #a60628; stroke: #a60628"/>
     <use xlink:href="#m0504fde5f9" x="198.678895" y="222.249474" style="fill: #a60628; stroke: #a60628"/>
     <use xlink:href="#m0504fde5f9" x="125.447316" y="75.786316" style="fill: #a60628; stroke: #a60628"/>
     <use xlink:href="#m0504fde5f9" x="162.063105" y="173.428421" style="fill: #a60628; stroke: #a60628"/>
     <use xlink:href="#m0504fde5f9" x="137.652579" y="112.402105" style="fill: #a60628; stroke: #a60628"/>
     <use xlink:href="#m0504fde5f9" x="296.321" y="222.249474" style="fill: #a60628; stroke: #a60628"/>
    </g>
   </g>
   <g id="QuadContourSet_2">
    <path d="M 292.957602 246.66 
L 284.115737 243.169389 
L 271.910474 236.938738 
L 267.735278 234.454737 
L 259.705211 229.126916 
L 249.376016 222.249474 
L 247.499947 220.863854 
L 235.294684 212.372231 
L 231.607553 210.044211 
L 223.089421 204.072434 
L 212.713801 197.838947 
L 210.884158 196.462692 
L 198.678895 187.985575 
L 195.114137 185.633684 
L 186.473632 176.710735 
L 183.315601 173.428421 
L 180.539391 161.223158 
L 186.473632 152.237648 
L 189.57968 149.017895 
L 198.678895 144.688746 
L 210.884158 140.745104 
L 223.089421 138.163482 
L 233.057476 136.812632 
L 235.294684 136.597796 
L 247.499947 135.881611 
L 259.705211 135.591722 
L 271.910474 135.73808 
L 284.115737 136.395654 
L 288.005776 136.812632 
L 296.321 137.941264 
" clip-path="url(#p6fd2c7926a)" style="fill: none; stroke-dasharray: 7.4,3.2; stroke-dashoffset: 0; stroke: #348abd; stroke-width: 2"/>
    <path d="M 199.254331 246.66 
L 198.678895 246.254797 
L 186.473632 237.672595 
L 181.919569 234.454737 
L 174.268368 229.596418 
L 162.67277 222.249474 
L 162.063105 221.877317 
L 149.857842 214.299904 
L 143.125654 210.044211 
L 137.652579 206.378824 
L 125.447316 198.056167 
L 125.131944 197.838947 
L 113.242053 188.101548 
L 110.193508 185.633684 
L 101.036789 175.476596 
L 99.099525 173.428421 
L 92.324493 161.223158 
L 90.262321 149.017895 
L 93.012215 136.812632 
L 100.847608 124.607368 
L 101.036789 124.417497 
L 113.242053 112.908133 
L 113.83451 112.402105 
L 125.447316 104.802662 
L 133.564638 100.196842 
L 137.652579 98.359727 
L 149.857842 93.730011 
L 162.063105 90.219092 
L 173.526024 87.991579 
L 174.268368 87.877412 
L 186.473632 86.821319 
L 198.678895 86.548002 
L 210.884158 86.894851 
L 223.089421 87.678777 
L 226.637855 87.991579 
L 235.294684 88.845883 
L 247.499947 90.180947 
L 259.705211 91.517467 
L 271.910474 92.805151 
L 284.115737 94.044099 
L 296.321 95.271347 
" clip-path="url(#p6fd2c7926a)" style="fill: none; stroke-dasharray: 7.4,3.2; stroke-dashoffset: 0; stroke: #348abd; stroke-width: 2"/>
    <path d="M 122.282756 246.66 
L 113.242053 240.06213 
L 105.611632 234.454737 
L 101.036789 231.627947 
L 88.831526 224.368354 
L 84.99018 222.249474 
L 76.626263 217.943722 
L 64.421 212.219539 
M 64.421 66.056583 
L 76.626263 65.451328 
L 88.831526 64.065731 
L 91.781848 63.581053 
L 101.036789 62.347586 
L 113.242053 60.500859 
L 125.447316 58.682562 
L 137.652579 57.06962 
L 149.857842 55.803239 
L 162.063105 54.98418 
L 174.268368 54.667966 
L 186.473632 54.861959 
L 198.678895 55.526869 
L 210.884158 56.583319 
L 223.089421 57.923364 
L 235.294684 59.424899 
L 247.499947 60.966188 
L 259.705211 62.438005 
L 270.36004 63.581053 
L 271.910474 63.751091 
L 284.115737 64.814413 
L 296.321 65.575331 
" clip-path="url(#p6fd2c7926a)" style="fill: none; stroke-dasharray: 7.4,3.2; stroke-dashoffset: 0; stroke: #348abd; stroke-width: 2"/>
    <path d="M 80.735789 14.76 
L 88.831526 18.251325 
L 101.036789 21.700347 
L 113.242053 23.749447 
L 125.447316 24.919946 
L 137.652579 25.602981 
L 149.857842 26.083296 
L 162.063105 26.56086 
L 170.12512 26.965263 
L 174.268368 27.139251 
L 186.473632 27.83285 
L 198.678895 28.714533 
L 210.884158 29.760583 
L 223.089421 30.911032 
L 235.294684 32.072704 
L 247.499947 33.121813 
L 259.705211 33.906005 
L 271.910474 34.245067 
L 284.115737 33.928997 
L 296.321 32.712189 
" clip-path="url(#p6fd2c7926a)" style="fill: none; stroke-dasharray: 7.4,3.2; stroke-dashoffset: 0; stroke: #348abd; stroke-width: 2"/>
    <path clip-path="url(#p6fd2c7926a)" style="fill: none; stroke-dasharray: 7.4,3.2; stroke-dashoffset: 0; stroke: #348abd; stroke-width: 2"/>
    <path clip-path="url(#p6fd2c7926a)" style="fill: none; stroke-dasharray: 7.4,3.2; stroke-dashoffset: 0; stroke: #348abd; stroke-width: 2"/>
   </g>
   <g id="patch_3">
    <path d="M 64.421 246.66 
L 64.421 14.76 
" style="fill: none; stroke: #bcbcbc; stroke-width: 0.8; stroke-linejoin: miter; stroke-linecap: square"/>
   </g>
   <g id="patch_4">
    <path d="M 296.321 246.66 
L 296.321 14.76 
" style="fill: none; stroke: #bcbcbc; stroke-width: 0.8; stroke-linejoin: miter; stroke-linecap: square"/>
   </g>
   <g id="patch_5">
    <path d="M 64.421 246.66 
L 296.321 246.66 
" style="fill: none; stroke: #bcbcbc; stroke-width: 0.8; stroke-linejoin: miter; stroke-linecap: square"/>
   </g>
   <g id="patch_6">
    <path d="M 64.421 14.76 
L 296.321 14.76 
" style="fill: none; stroke: #bcbcbc; stroke-width: 0.8; stroke-linejoin: miter; stroke-linecap: square"/>
   </g>
   <g id="legend_1">
    <g id="patch_7">
     <path d="M 314.916 67.214687 
L 422.641 67.214687 
Q 424.641 67.214687 424.641 65.214687 
L 424.641 21.76 
Q 424.641 19.76 422.641 19.76 
L 314.916 19.76 
Q 312.916 19.76 312.916 21.76 
L 312.916 65.214687 
Q 312.916 67.214687 314.916 67.214687 
z
" style="fill: #eeeeee; opacity: 0.8; stroke: #cccccc; stroke-width: 0.5; stroke-linejoin: miter"/>
    </g>
    <g id="line2d_8">
     <path d="M 316.916 27.858437 
L 326.916 27.858437 
L 336.916 27.858437 
" style="fill: none; stroke: #000000; stroke-width: 2; stroke-linecap: square"/>
    </g>
    <g id="text_9">
     <!-- True $z(x,y)$ -->
     <g transform="translate(344.916 31.358437) scale(0.1 -0.1)">
      <defs>
       <path id="DejaVuSans-54" d="M -19 4666 
L 3928 4666 
L 3928 4134 
L 2272 4134 
L 2272 0 
L 1638 0 
L 1638 4134 
L -19 4134 
L -19 4666 
z
" transform="scale(0.015625)"/>
       <path id="DejaVuSans-72" d="M 2631 2963 
Q 2534 3019 2420 3045 
Q 2306 3072 2169 3072 
Q 1681 3072 1420 2755 
Q 1159 2438 1159 1844 
L 1159 0 
L 581 0 
L 581 3500 
L 1159 3500 
L 1159 2956 
Q 1341 3275 1631 3429 
Q 1922 3584 2338 3584 
Q 2397 3584 2469 3576 
Q 2541 3569 2628 3553 
L 2631 2963 
z
" transform="scale(0.015625)"/>
       <path id="DejaVuSans-75" d="M 544 1381 
L 544 3500 
L 1119 3500 
L 1119 1403 
Q 1119 906 1312 657 
Q 1506 409 1894 409 
Q 2359 409 2629 706 
Q 2900 1003 2900 1516 
L 2900 3500 
L 3475 3500 
L 3475 0 
L 2900 0 
L 2900 538 
Q 2691 219 2414 64 
Q 2138 -91 1772 -91 
Q 1169 -91 856 284 
Q 544 659 544 1381 
z
M 1991 3584 
L 1991 3584 
z
" transform="scale(0.015625)"/>
       <path id="DejaVuSans-65" d="M 3597 1894 
L 3597 1613 
L 953 1613 
Q 991 1019 1311 708 
Q 1631 397 2203 397 
Q 2534 397 2845 478 
Q 3156 559 3463 722 
L 3463 178 
Q 3153 47 2828 -22 
Q 2503 -91 2169 -91 
Q 1331 -91 842 396 
Q 353 884 353 1716 
Q 353 2575 817 3079 
Q 1281 3584 2069 3584 
Q 2775 3584 3186 3129 
Q 3597 2675 3597 1894 
z
M 3022 2063 
Q 3016 2534 2758 2815 
Q 2500 3097 2075 3097 
Q 1594 3097 1305 2825 
Q 1016 2553 972 2059 
L 3022 2063 
z
" transform="scale(0.015625)"/>
       <path id="DejaVuSans-20" transform="scale(0.015625)"/>
       <path id="Cmmi10-7a" d="M 313 -72 
Q 263 -72 263 -13 
Q 263 19 275 31 
Q 447 328 689 598 
Q 931 869 1239 1145 
Q 1547 1422 1858 1700 
Q 2169 1978 2363 2194 
L 2338 2194 
Q 2197 2194 1925 2284 
Q 1653 2375 1497 2375 
Q 1328 2375 1168 2301 
Q 1009 2228 966 2075 
Q 956 2028 916 2028 
L 838 2028 
Q 788 2028 788 2094 
L 788 2113 
Q 838 2300 952 2462 
Q 1066 2625 1233 2726 
Q 1400 2828 1581 2828 
Q 1709 2828 1793 2770 
Q 1878 2713 1990 2591 
Q 2103 2469 2173 2416 
Q 2244 2363 2350 2363 
Q 2491 2363 2602 2491 
Q 2713 2619 2822 2809 
Q 2841 2828 2869 2828 
L 2944 2828 
Q 2966 2828 2980 2812 
Q 2994 2797 2994 2772 
Q 2994 2750 2981 2731 
Q 2809 2434 2579 2176 
Q 2350 1919 1979 1586 
Q 1609 1253 1354 1023 
Q 1100 794 878 550 
Q 928 563 1013 563 
Q 1169 563 1439 473 
Q 1709 384 1856 384 
Q 2016 384 2178 453 
Q 2341 522 2459 647 
Q 2578 772 2619 934 
Q 2634 978 2669 978 
L 2747 978 
Q 2772 978 2787 958 
Q 2803 938 2803 916 
Q 2803 909 2797 897 
Q 2738 653 2591 433 
Q 2444 213 2230 70 
Q 2016 -72 1772 -72 
Q 1650 -72 1565 -15 
Q 1481 41 1367 164 
Q 1253 288 1181 342 
Q 1109 397 1006 397 
Q 688 397 434 -50 
Q 413 -72 391 -72 
L 313 -72 
z
" transform="scale(0.015625)"/>
       <path id="Cmr10-28" d="M 1984 -1588 
Q 1628 -1306 1370 -942 
Q 1113 -578 948 -165 
Q 784 247 703 697 
Q 622 1147 622 1600 
Q 622 2059 703 2509 
Q 784 2959 951 3375 
Q 1119 3791 1378 4153 
Q 1638 4516 1984 4788 
Q 1984 4800 2016 4800 
L 2075 4800 
Q 2094 4800 2109 4783 
Q 2125 4766 2125 4744 
Q 2125 4716 2113 4703 
Q 1800 4397 1592 4047 
Q 1384 3697 1257 3301 
Q 1131 2906 1075 2482 
Q 1019 2059 1019 1600 
Q 1019 -434 2106 -1491 
Q 2125 -1509 2125 -1544 
Q 2125 -1559 2108 -1579 
Q 2091 -1600 2075 -1600 
L 2016 -1600 
Q 1984 -1600 1984 -1588 
z
" transform="scale(0.015625)"/>
       <path id="Cmmi10-3b" d="M 634 -1153 
Q 634 -1125 659 -1100 
Q 891 -878 1019 -587 
Q 1147 -297 1147 25 
L 1147 103 
Q 1044 0 891 0 
Q 744 0 641 103 
Q 538 206 538 353 
Q 538 503 641 603 
Q 744 703 891 703 
Q 1119 703 1216 492 
Q 1313 281 1313 25 
Q 1313 -331 1170 -651 
Q 1028 -972 769 -1228 
Q 744 -1241 728 -1241 
Q 697 -1241 665 -1212 
Q 634 -1184 634 -1153 
z
" transform="scale(0.015625)"/>
       <path id="Cmr10-29" d="M 416 -1600 
Q 359 -1600 359 -1544 
Q 359 -1516 372 -1503 
Q 1466 -434 1466 1600 
Q 1466 3634 384 4691 
Q 359 4706 359 4744 
Q 359 4766 376 4783 
Q 394 4800 416 4800 
L 475 4800 
Q 494 4800 506 4788 
Q 966 4425 1272 3906 
Q 1578 3388 1720 2800 
Q 1863 2213 1863 1600 
Q 1863 1147 1786 708 
Q 1709 269 1542 -157 
Q 1375 -584 1119 -945 
Q 863 -1306 506 -1588 
Q 494 -1600 475 -1600 
L 416 -1600 
z
" transform="scale(0.015625)"/>
      </defs>
      <use xlink:href="#DejaVuSans-54"/>
      <use xlink:href="#DejaVuSans-72" transform="translate(61.083984 0)"/>
      <use xlink:href="#DejaVuSans-75" transform="translate(102.197266 0)"/>
      <use xlink:href="#DejaVuSans-65" transform="translate(165.576172 0)"/>
      <use xlink:href="#DejaVuSans-20" transform="translate(227.099609 0)"/>
      <use xlink:href="#Cmmi10-7a" transform="translate(258.886719 0)"/>
      <use xlink:href="#Cmr10-28" transform="translate(305.371094 0)"/>
      <use xlink:href="#Cmmi10-78" transform="translate(344.189453 0)"/>
      <use xlink:href="#Cmmi10-3b" transform="translate(401.269531 0)"/>
      <use xlink:href="#Cmmi10-79" transform="translate(446.513672 0)"/>
      <use xlink:href="#Cmr10-29" transform="translate(495.537109 0)"/>
     </g>
    </g>
    <g id="line2d_9">
     <g>
      <use xlink:href="#m0504fde5f9" x="326.916" y="42.956875" style="fill: #a60628; stroke: #a60628"/>
     </g>
    </g>
    <g id="text_10">
     <!-- Train samples -->
     <g transform="translate(344.916 46.456875) scale(0.1 -0.1)">
      <defs>
       <path id="DejaVuSans-61" d="M 2194 1759 
Q 1497 1759 1228 1600 
Q 959 1441 959 1056 
Q 959 750 1161 570 
Q 1363 391 1709 391 
Q 2188 391 2477 730 
Q 2766 1069 2766 1631 
L 2766 1759 
L 2194 1759 
z
M 3341 1997 
L 3341 0 
L 2766 0 
L 2766 531 
Q 2569 213 2275 61 
Q 1981 -91 1556 -91 
Q 1019 -91 701 211 
Q 384 513 384 1019 
Q 384 1609 779 1909 
Q 1175 2209 1959 2209 
L 2766 2209 
L 2766 2266 
Q 2766 2663 2505 2880 
Q 2244 3097 1772 3097 
Q 1472 3097 1187 3025 
Q 903 2953 641 2809 
L 641 3341 
Q 956 3463 1253 3523 
Q 1550 3584 1831 3584 
Q 2591 3584 2966 3190 
Q 3341 2797 3341 1997 
z
" transform="scale(0.015625)"/>
       <path id="DejaVuSans-69" d="M 603 3500 
L 1178 3500 
L 1178 0 
L 603 0 
L 603 3500 
z
M 603 4863 
L 1178 4863 
L 1178 4134 
L 603 4134 
L 603 4863 
z
" transform="scale(0.015625)"/>
       <path id="DejaVuSans-6e" d="M 3513 2113 
L 3513 0 
L 2938 0 
L 2938 2094 
Q 2938 2591 2744 2837 
Q 2550 3084 2163 3084 
Q 1697 3084 1428 2787 
Q 1159 2491 1159 1978 
L 1159 0 
L 581 0 
L 581 3500 
L 1159 3500 
L 1159 2956 
Q 1366 3272 1645 3428 
Q 1925 3584 2291 3584 
Q 2894 3584 3203 3211 
Q 3513 2838 3513 2113 
z
" transform="scale(0.015625)"/>
       <path id="DejaVuSans-73" d="M 2834 3397 
L 2834 2853 
Q 2591 2978 2328 3040 
Q 2066 3103 1784 3103 
Q 1356 3103 1142 2972 
Q 928 2841 928 2578 
Q 928 2378 1081 2264 
Q 1234 2150 1697 2047 
L 1894 2003 
Q 2506 1872 2764 1633 
Q 3022 1394 3022 966 
Q 3022 478 2636 193 
Q 2250 -91 1575 -91 
Q 1294 -91 989 -36 
Q 684 19 347 128 
L 347 722 
Q 666 556 975 473 
Q 1284 391 1588 391 
Q 1994 391 2212 530 
Q 2431 669 2431 922 
Q 2431 1156 2273 1281 
Q 2116 1406 1581 1522 
L 1381 1569 
Q 847 1681 609 1914 
Q 372 2147 372 2553 
Q 372 3047 722 3315 
Q 1072 3584 1716 3584 
Q 2034 3584 2315 3537 
Q 2597 3491 2834 3397 
z
" transform="scale(0.015625)"/>
       <path id="DejaVuSans-6d" d="M 3328 2828 
Q 3544 3216 3844 3400 
Q 4144 3584 4550 3584 
Q 5097 3584 5394 3201 
Q 5691 2819 5691 2113 
L 5691 0 
L 5113 0 
L 5113 2094 
Q 5113 2597 4934 2840 
Q 4756 3084 4391 3084 
Q 3944 3084 3684 2787 
Q 3425 2491 3425 1978 
L 3425 0 
L 2847 0 
L 2847 2094 
Q 2847 2600 2669 2842 
Q 2491 3084 2119 3084 
Q 1678 3084 1418 2786 
Q 1159 2488 1159 1978 
L 1159 0 
L 581 0 
L 581 3500 
L 1159 3500 
L 1159 2956 
Q 1356 3278 1631 3431 
Q 1906 3584 2284 3584 
Q 2666 3584 2933 3390 
Q 3200 3197 3328 2828 
z
" transform="scale(0.015625)"/>
       <path id="DejaVuSans-70" d="M 1159 525 
L 1159 -1331 
L 581 -1331 
L 581 3500 
L 1159 3500 
L 1159 2969 
Q 1341 3281 1617 3432 
Q 1894 3584 2278 3584 
Q 2916 3584 3314 3078 
Q 3713 2572 3713 1747 
Q 3713 922 3314 415 
Q 2916 -91 2278 -91 
Q 1894 -91 1617 61 
Q 1341 213 1159 525 
z
M 3116 1747 
Q 3116 2381 2855 2742 
Q 2594 3103 2138 3103 
Q 1681 3103 1420 2742 
Q 1159 2381 1159 1747 
Q 1159 1113 1420 752 
Q 1681 391 2138 391 
Q 2594 391 2855 752 
Q 3116 1113 3116 1747 
z
" transform="scale(0.015625)"/>
       <path id="DejaVuSans-6c" d="M 603 4863 
L 1178 4863 
L 1178 0 
L 603 0 
L 603 4863 
z
" transform="scale(0.015625)"/>
      </defs>
      <use xlink:href="#DejaVuSans-54"/>
      <use xlink:href="#DejaVuSans-72" transform="translate(46.333984 0)"/>
      <use xlink:href="#DejaVuSans-61" transform="translate(87.447266 0)"/>
      <use xlink:href="#DejaVuSans-69" transform="translate(148.726562 0)"/>
      <use xlink:href="#DejaVuSans-6e" transform="translate(176.509766 0)"/>
      <use xlink:href="#DejaVuSans-20" transform="translate(239.888672 0)"/>
      <use xlink:href="#DejaVuSans-73" transform="translate(271.675781 0)"/>
      <use xlink:href="#DejaVuSans-61" transform="translate(323.775391 0)"/>
      <use xlink:href="#DejaVuSans-6d" transform="translate(385.054688 0)"/>
      <use xlink:href="#DejaVuSans-70" transform="translate(482.466797 0)"/>
      <use xlink:href="#DejaVuSans-6c" transform="translate(545.943359 0)"/>
      <use xlink:href="#DejaVuSans-65" transform="translate(573.726562 0)"/>
      <use xlink:href="#DejaVuSans-73" transform="translate(635.25 0)"/>
     </g>
    </g>
    <g id="line2d_10">
     <path d="M 316.916 57.635 
L 326.916 57.635 
L 336.916 57.635 
" style="fill: none; stroke-dasharray: 7.4,3.2; stroke-dashoffset: 0; stroke: #348abd; stroke-width: 2"/>
    </g>
    <g id="text_11">
     <!-- Posterior mean -->
     <g transform="translate(344.916 61.135) scale(0.1 -0.1)">
      <defs>
       <path id="DejaVuSans-50" d="M 1259 4147 
L 1259 2394 
L 2053 2394 
Q 2494 2394 2734 2622 
Q 2975 2850 2975 3272 
Q 2975 3691 2734 3919 
Q 2494 4147 2053 4147 
L 1259 4147 
z
M 628 4666 
L 2053 4666 
Q 2838 4666 3239 4311 
Q 3641 3956 3641 3272 
Q 3641 2581 3239 2228 
Q 2838 1875 2053 1875 
L 1259 1875 
L 1259 0 
L 628 0 
L 628 4666 
z
" transform="scale(0.015625)"/>
       <path id="DejaVuSans-6f" d="M 1959 3097 
Q 1497 3097 1228 2736 
Q 959 2375 959 1747 
Q 959 1119 1226 758 
Q 1494 397 1959 397 
Q 2419 397 2687 759 
Q 2956 1122 2956 1747 
Q 2956 2369 2687 2733 
Q 2419 3097 1959 3097 
z
M 1959 3584 
Q 2709 3584 3137 3096 
Q 3566 2609 3566 1747 
Q 3566 888 3137 398 
Q 2709 -91 1959 -91 
Q 1206 -91 779 398 
Q 353 888 353 1747 
Q 353 2609 779 3096 
Q 1206 3584 1959 3584 
z
" transform="scale(0.015625)"/>
       <path id="DejaVuSans-74" d="M 1172 4494 
L 1172 3500 
L 2356 3500 
L 2356 3053 
L 1172 3053 
L 1172 1153 
Q 1172 725 1289 603 
Q 1406 481 1766 481 
L 2356 481 
L 2356 0 
L 1766 0 
Q 1100 0 847 248 
Q 594 497 594 1153 
L 594 3053 
L 172 3053 
L 172 3500 
L 594 3500 
L 594 4494 
L 1172 4494 
z
" transform="scale(0.015625)"/>
      </defs>
      <use xlink:href="#DejaVuSans-50"/>
      <use xlink:href="#DejaVuSans-6f" transform="translate(56.677734 0)"/>
      <use xlink:href="#DejaVuSans-73" transform="translate(117.859375 0)"/>
      <use xlink:href="#DejaVuSans-74" transform="translate(169.958984 0)"/>
      <use xlink:href="#DejaVuSans-65" transform="translate(209.167969 0)"/>
      <use xlink:href="#DejaVuSans-72" transform="translate(270.691406 0)"/>
      <use xlink:href="#DejaVuSans-69" transform="translate(311.804688 0)"/>
      <use xlink:href="#DejaVuSans-6f" transform="translate(339.587891 0)"/>
      <use xlink:href="#DejaVuSans-72" transform="translate(400.769531 0)"/>
      <use xlink:href="#DejaVuSans-20" transform="translate(441.882812 0)"/>
      <use xlink:href="#DejaVuSans-6d" transform="translate(473.669922 0)"/>
      <use xlink:href="#DejaVuSans-65" transform="translate(571.082031 0)"/>
      <use xlink:href="#DejaVuSans-61" transform="translate(632.605469 0)"/>
      <use xlink:href="#DejaVuSans-6e" transform="translate(693.884766 0)"/>
     </g>
    </g>
   </g>
  </g>
 </g>
 <defs>
  <clipPath id="p6fd2c7926a">
   <rect x="64.421" y="14.76" width="231.9" height="231.9"/>
  </clipPath>
 </defs>
</svg>
